<svg width="200" height="200" xmlns="http://www.w3.org/2000/svg" preserveAspectRatio="xMidYMid meet" class="iconify iconify--twemoji" role="img" aria-hidden="true">

 <g>
  <title>Layer 1</title>
  <g stroke="null" id="svg_12">
   <ellipse stroke="null" id="svg_1" ry="45.53853" rx="91.92155" cy="133.38301" cx="99.84314" fill="#939598"/>
   <ellipse stroke="null" id="svg_2" ry="45.53853" rx="91.92155" cy="124.2753" cx="99.84314" fill="#F1F2F2"/>
   <ellipse stroke="null" id="svg_3" ry="34.65938" rx="75.57994" cy="122.50385" cx="99.84314" fill="#FFF"/>
   <path stroke="null" id="svg_4" d="m48.77561,147.04457c0,-13.86193 2.12952,-32.82418 0.21448,-63.18472c3.06916,-6.27066 31.3861,-11.25713 33.83224,-17.26821c6.57239,-16.14796 -6.17406,-26.9406 6.8073,-37.94726c10.46884,-8.87546 25.53376,-9.10771 30.64052,4.55385c10.21351,-9.10771 30.64052,-4.55385 30.64052,9.10771c20.42701,-4.55385 30.64052,13.66156 15.32026,27.32312c0,4.55385 -5.10675,40.98468 -5.10675,50.09239s-1.0622,8.16051 -26.59597,12.71436s-85.75259,14.60876 -85.75259,14.60876z" fill="#E1E8ED"/>
   <path stroke="null" id="svg_5" d="m48.77561,142.49071l0,-54.64624s107.24181,-31.87697 107.24181,-11.19337l0,47.6242l-107.24181,18.21541z" fill="#FFAC33"/>
   <path stroke="null" id="svg_6" d="m48.77561,137.93686l0,-45.53853s63.19607,-19.16262 102.13506,-18.21541l0,45.53853l-102.13506,18.21541z" fill="#FFD983"/>
   <path stroke="null" id="svg_7" d="m48.77561,115.16759l0,-4.55385l107.24181,-18.21541l0,4.55385l-107.24181,18.21541z" fill="#FFAC33"/>
   <path stroke="null" id="svg_8" d="m48.77561,83.29062l45.96078,-40.98468c10.21351,0 40.85402,4.55385 56.17428,22.76927l-102.13506,18.21541z" fill="#E1E8ED"/>
   <path stroke="null" id="svg_9" d="m161.12417,65.07521c5.10675,-4.55385 5.10675,-22.76927 -15.32026,-18.21541c0,-4.55385 -10.21351,-18.21541 -25.53376,-9.10771c0,-4.55385 -25.53376,-9.10771 -30.64052,0c51.06753,13.66156 71.49454,27.32312 71.49454,27.32312z" fill="#FFF"/>
   <path stroke="null" id="svg_10" d="m99.62865,67.16087c-9.36068,-0.9472 -22.55653,-4.93182 -20.00315,-15.93849s12.63411,-22.22736 19.15032,-25.23746c5.7502,-2.6549 11.87831,-0.7104 16.38757,14.80458c2.97724,10.24617 14.04357,23.3385 -8.51296,26.18466c-2.33889,0 -7.02179,0.18671 -7.02179,0.18671z" fill="#DD2E44"/>
   <path stroke="null" id="svg_11" d="m101.75817,42.4972a2.54316,2.26782 0 0 1 -2.0427,-0.91077l-2.55338,-3.03742a2.55338,2.27693 0 1 1 4.0854,-2.73231l2.55338,3.03742a2.55338,2.27693 0 0 1 -2.0427,3.64308zm-12.33791,15.93849a2.55338,2.27693 0 0 1 -2.47167,-2.85071l1.27669,-4.36259a2.55338,2.27693 0 0 1 4.93823,1.15212l-1.27669,4.36259a2.55338,2.27693 0 0 1 -2.46656,1.69859zm22.33694,0.37797a2.53295,2.25871 0 0 1 -1.33286,-0.33243l-3.83006,-2.08566a2.55848,2.28148 0 0 1 2.66572,-3.88899l3.83006,2.08566a2.55848,2.28148 0 0 1 -1.33286,4.22142z" fill="#F4ABBA"/>
  </g>
 </g>
</svg>