<svg width="512" height="512" xmlns="http://www.w3.org/2000/svg">
 <defs>
  <linearGradient y2="0.76198" x2="0.78466" y1="0.06308" x1="0.52434" id="gradient_0">
   <stop stop-color="#FEB1AB" offset="0"/>
   <stop stop-color="#FEDDC6" offset="1"/>
  </linearGradient>
  <linearGradient y2="0.14887" x2="0.69308" y1="0.94091" x1="0.57582" id="gradient_1">
   <stop stop-color="#FEE2CB" offset="0"/>
   <stop stop-color="#FEFBF0" offset="1"/>
  </linearGradient>
  <linearGradient y2="0.99671" x2="0.963" y1="0.15171" x1="0.96694" id="gradient_2">
   <stop stop-color="#C7293F" offset="0"/>
   <stop stop-color="#E24B5B" offset="1"/>
  </linearGradient>
  <linearGradient y2="0.59487" x2="0.58485" y1="0.43946" x1="0.34353" id="gradient_3">
   <stop stop-color="#FE999B" offset="0"/>
   <stop stop-color="#FEBFBC" offset="1"/>
  </linearGradient>
  <linearGradient y2="0.51218" x2="0.05643" y1="0.99225" x1="0.30629" id="gradient_4">
   <stop stop-color="#FE9E9C" offset="0"/>
   <stop stop-color="#FEBEB3" offset="1"/>
  </linearGradient>
  <linearGradient y2="0.57905" x2="0.96925" y1="0.90522" x1="0.00747" id="gradient_5">
   <stop stop-color="#FE6A5B" offset="0"/>
   <stop stop-color="#FE978E" offset="1"/>
  </linearGradient>
 </defs>





 <g>
  <title>Layer 1</title>
  <path id="svg_2" d="m368.809,681.938c2.746,-0.026 5.412,0.301 8.066,0.334c4.288,0.053 30.36,-0.579 32.25,0.358c0.273,0.135 0.449,0.413 0.673,0.62l-0.4,0.631c-2.141,0.535 -4.19,0.745 -6.363,1.042c-2.629,0.05 -5.274,0.045 -7.899,0.183c-1.176,0.063 -2.588,0.384 -3.726,0.103c-1.852,-0.456 -4.473,-0.17 -6.421,-0.185c-4.297,-0.033 -8.632,0.044 -12.801,-0.744c-1.021,-0.193 -2.066,0.006 -3.118,-0.227c-1.091,-0.243 -2.173,-0.257 -3.27,-0.439l-0.55,-0.101c-1.71,-0.288 -3.243,-0.743 -4.887,-1.281l8.113,-0.252l0.333,-0.042z" transform="scale(0.666667 0.666667)" fill="#FE9896"/>
  <path id="svg_3" d="m158.98,169.869l18.431,-0.418c-5.03,3.904 -10.429,6.986 -15.374,11.093c-3.705,3.018 -6.881,7.046 -10.025,10.642c-1.537,1.759 -3.213,4.174 -5.281,5.289c2.137,-6.406 4.073,-12.903 7.22,-18.907c1.423,-2.716 3.261,-5.201 5.029,-7.699z" transform="scale(0.666667 0.666667)" fill="#F65B67"/>
  <path id="svg_4" d="m485.669,140.637c1.446,-1.055 2.496,-3.51 3.349,-5.075c2.624,-4.812 5.321,-9.799 6.966,-15.048c0.861,-2.749 1.512,-5.548 2.3,-8.316c0.221,-0.776 0.574,-2.452 1.028,-3.015c0.246,-0.304 0.626,-0.469 0.938,-0.703l1.312,0.4c1.578,2.187 0.696,5.199 1.213,7.814l0.127,0.6c-1.046,9.495 -6.269,19.389 -10.979,27.573c-1.681,-1.238 -4.034,-1.018 -6.037,-1.111c0.356,-0.74 0.561,-1.41 0.803,-2.194l-1.02,-0.925z" transform="scale(0.666667 0.666667)" fill="#FDE2D3"/>
  <path id="svg_5" d="m158.98,169.869c-8.247,-0.668 -16.229,-2.076 -24.144,-4.543c-5.612,-1.75 -11.859,-3.808 -16.502,-7.538c-1.05,-0.843 -2.311,-1.858 -2.873,-3.1c-0.342,-0.758 -0.513,-1.312 -0.149,-2.076c6.946,2.055 14.682,0.156 21.605,-1.329c8.131,-1.744 16.22,-3.653 24.169,-6.105c7.394,-2.282 14.939,-5.196 22.476,-6.855c1.029,0.361 1.121,1.035 1.628,1.957c2.02,6.372 5.062,10.465 8.965,15.726c-0.818,0.521 -1.374,0.491 -2.155,0.935l-0.355,0.081c-0.548,0.136 -0.697,0.35 -1.145,0.669l-0.539,0.352c-1.551,1.034 -2.757,2.234 -3.774,3.773l-0.355,0.444c-0.419,0.557 -0.552,1.008 -0.739,1.667l-7.682,5.524l-18.431,0.418z" transform="scale(0.666667 0.666667)" fill="#4F5262"/>
  <path id="svg_6" d="m444.072,313.365c0.794,0.598 0.863,0.403 1.042,1.437c0.846,4.881 18.373,15.926 22.947,18.961c1.478,0.98 4.837,2.619 5.602,4.139c-1.842,0.904 -3.685,1.794 -5.558,2.632c-0.769,0.343 -2.103,0.72 -2.668,1.328c-2.594,2.432 -5.67,4.281 -8.614,6.248c-6.331,4.23 -12.788,8.061 -19.392,11.839c-8.213,4.696 -16.285,9.656 -24.556,14.251c-10.202,5.668 -20.267,10.929 -30.008,17.401l-0.519,-21.21c7.761,-1.179 14.281,-3.83 21.192,-7.427c15.156,-9.432 32.318,-25.286 37.963,-42.583c1.215,-1.751 1.85,-4.955 2.569,-7.016z" transform="scale(0.666667 0.666667)" fill="#FDD0C3"/>
  <path id="svg_7" d="m444.072,313.365c0.794,0.598 0.863,0.403 1.042,1.437c0.846,4.881 18.373,15.926 22.947,18.961c1.478,0.98 4.837,2.619 5.602,4.139c-1.842,0.904 -3.685,1.794 -5.558,2.632c-0.769,0.343 -2.103,0.72 -2.668,1.328c-3.957,0.218 -7.798,1.724 -11.636,2.674c-9.492,2.35 -19.23,4.98 -28.093,9.207c-5.789,2.76 -11.125,6.431 -17.054,8.912c-1.31,0.548 -3.4,1.299 -4.762,0.846l-0.352,-0.537c15.156,-9.432 32.318,-25.286 37.963,-42.583c1.215,-1.751 1.85,-4.955 2.569,-7.016z" transform="scale(0.666667 0.666667)" fill="#FEFEFD"/>
  <path id="svg_8" d="m64.8121,491.686c-1.6656,-0.67 -2.4035,-1.4 -3.1826,-3.02c-3.2066,-6.669 -2.8399,-15.488 -0.3657,-22.354l2.7003,-6.514c8.7884,-17.524 25.7401,-26.961 42.8849,-34.685c4.064,-1.831 8.304,-4.042 12.51,-5.443c-0.05,6.192 0.035,12.418 -0.194,18.604c-0.155,4.167 -0.889,8.771 -0.493,12.923c0.122,1.276 0.367,1.844 1.295,2.717c1.884,1.773 4.326,1.71 4.587,4.695c-2.432,1.122 -4.698,2.652 -7.065,3.923c-5.89,3.16 -11.762,6.351 -17.6346,9.543c-10.4255,5.667 -21.1074,10.898 -31.477,16.65c-0.8989,0.499 -2.9257,1.413 -3.3634,2.318l-0.2019,0.643z" transform="scale(0.666667 0.666667)" fill="#FEAEAE"/>
  <path id="svg_9" d="m402.013,562.659l-0.059,-16.685c4.423,-1.855 8.401,-5.044 12.562,-7.435c21.744,-12.497 42.681,-26.651 63.797,-40.187c13.153,-8.431 26.432,-16.663 39.562,-25.131c15.41,-9.939 30.495,-20.421 45.919,-30.357c18.325,-11.805 36.382,-23.855 54.498,-35.97c9.008,-6.025 18.231,-11.696 26.946,-18.154l-0.254,17.492c-3.453,0.784 -6.465,2.644 -9.488,4.423c-3.775,2.221 -7.512,4.507 -11.248,6.793c-5.264,3.222 -10.691,6.207 -15.874,9.558c-19.974,12.913 -39.316,26.833 -59.035,40.133c-11.646,7.855 -23.669,15.12 -35.446,22.767c-6.859,4.454 -13.393,9.41 -20.224,13.906c-11.897,7.832 -24.166,15.281 -36.357,22.652c-5.975,3.613 -12.068,6.997 -17.903,10.848c-12.537,8.274 -24.192,18.096 -37.396,25.347z" transform="scale(0.666667 0.666667)" fill="#FE8487"/>
  <path id="svg_10" d="m457.579,515.812c0.301,0.059 0.578,0.205 0.859,0.326c-0.289,2.17 -0.375,4.482 -1.126,6.546l-0.9,-0.325c-0.1,-0.871 -0.659,-3.191 -0.45,-3.921c0.233,-0.818 1.13,-1.925 1.617,-2.626z" transform="scale(0.666667 0.666667)" fill="#FE9896"/>
  <path id="svg_11" d="m421.899,536.812c0.399,0.072 0.129,0.001 0.749,0.376c0.118,2.666 0.889,7.907 -0.586,10.104l-0.503,-0.754c-0.134,-2.859 -0.824,-7.116 0.34,-9.726z" transform="scale(0.666667 0.666667)" fill="#FEAEAE"/>
  <path id="svg_12" d="m595.604,423.938l0.532,0.267c0.425,1.682 0.468,3.344 0.481,5.071c0.018,2.353 -0.208,3.057 -1.902,4.786c-0.354,0.021 -0.641,-0.129 -0.972,-0.245c-0.241,-2.212 -0.356,-4.671 -0.011,-6.879c0.227,-1.458 0.745,-2.101 1.872,-3z" transform="scale(0.666667 0.666667)" fill="#FEAEAE"/>
  <path id="svg_13" d="m396.564,687.921c5.69,-0.534 11.57,-0.899 17.206,-1.799c10.234,-1.635 20.783,-4.543 30.487,-8.13c20.611,-7.619 40.394,-17.865 60.336,-27.061c13.523,-6.236 27.086,-12.379 40.501,-18.847c13.964,-6.733 27.672,-14.08 41.555,-20.995c27.045,-13.472 54.045,-27.03 80.926,-40.852c10.463,-5.381 21.071,-10.463 31.613,-15.672c8.292,-4.097 16.68,-7.714 23.974,-13.54c5.939,-4.743 9.835,-10.981 10.531,-18.648c0.485,-5.344 -0.951,-8.576 -4.306,-12.637l1.675,0.937c5.576,3.789 9.786,9.768 11.161,16.363c0.498,2.387 0.571,4.864 1.108,7.231l0.099,0.385l-0.362,0.222c-3.529,2.214 -5.291,6.442 -7.97,9.581c-3.983,4.666 -8.771,8.327 -14.012,11.46c-11.899,7.112 -25.207,12.305 -37.703,18.289c-12.694,6.08 -25.244,12.454 -37.911,18.582c-11.215,5.426 -22.554,10.591 -33.765,16.022c-35.934,17.408 -71.63,35.205 -107.762,52.202c-11.681,5.495 -23.33,10.983 -35.095,16.3c-7.899,3.57 -15.842,7.238 -24.027,10.107c-17.569,6.158 -36.67,9.62 -55.296,9.784c1.717,-2.457 4.765,-5.391 5.631,-8.255l0.17,-0.638l1.236,-0.391z" transform="scale(0.666667 0.666667)" fill="#F65B67"/>
  <path id="svg_14" d="m26.3475,534.649l0.0887,-0.312c0.2844,-1.403 -0.1449,-3.077 -0.022,-4.543c0.4887,-5.831 2.9986,-10.211 6.6763,-14.562c1.7386,-2.057 3.8898,-3.71 5.9683,-5.406c-1.3115,2.409 -2.5582,4.594 -3.1325,7.299l-0.1381,0.622c-0.8736,4.217 -0.1241,8.382 1.9182,12.128c0.7186,1.318 1.3215,2.573 2.2851,3.75c0.6635,0.81 1.5194,1.53 2.0298,2.442c0.9645,1.723 3.7994,4.131 5.42,5.245c1.9244,1.324 3.6548,3.086 5.5978,4.44c4.6281,3.225 10.3114,6.319 15.5217,8.458l18.8743,9.067c8.6598,3.755 17.1949,8.311 25.6229,12.572c3.798,1.92 7.816,4.302 11.801,5.749c0.549,0.2 0.997,0.436 1.504,0.718l115.199,55.965l12.75,6.006c3.676,1.6 7.181,3.594 10.813,5.287c15.063,7.023 29.913,14.491 45.132,21.176c11.776,5.173 23.69,9.975 36.243,12.965c5.399,1.287 10.991,2.185 16.502,2.799c2.782,0.31 5.714,0.306 8.451,0.806c8.112,1.481 16.925,0.555 25.111,0.601l-1.236,0.391l-0.17,0.638c-0.866,2.864 -3.914,5.798 -5.631,8.255l-23.309,-1.052c-14.043,-1.571 -27.689,-4.257 -40.929,-9.294c-10.569,-4.022 -20.773,-9.164 -30.983,-14.011c-12.566,-5.966 -25.176,-11.83 -37.753,-17.771c-16.27,-7.686 -32.43,-15.611 -48.708,-23.27c-20.331,-9.566 -40.776,-18.928 -60.974,-28.775c-7.882,-3.843 -15.556,-8.113 -23.42,-11.991c-14.283,-7.043 -28.724,-14.054 -43.203,-20.671c-11.1479,-5.095 -22.8094,-9.539 -33.2456,-16.034c-6.0546,-3.768 -11.6984,-7.73 -16.1534,-13.404c-1.5159,-1.931 -2.7096,-4.071 -4.2565,-5.985l-0.245,-0.298z" transform="scale(0.666667 0.666667)" fill="#FE9896"/>
  <path id="svg_15" d="m310.242,113.64c1.171,-1.344 3.074,-2.13 4.55,-3.155c3.243,-2.252 6.385,-4.672 9.583,-6.99c11.704,-8.4837 23.526,-16.7825 35.251,-25.2333c7.219,-5.2029 14.614,-10.2327 21.303,-16.1215l104.74,78.4968l1.02,0.925c-0.242,0.784 -0.447,1.454 -0.803,2.194l-16.261,13.374c-4.973,1.401 -10.799,-0.234 -16.01,0.451c-4.579,0.054 -9.197,2.047 -13.439,3.599c-1.197,0.438 -5.212,2.304 -6.301,1.939c-0.289,-0.097 -0.487,-0.366 -0.731,-0.549l-0.022,-0.573c-1.998,-3.552 -4.714,-6.705 -7.258,-9.874c-2.188,-3.096 -5.02,-6.034 -7.562,-8.847c-4.179,-4.627 -8.606,-9.393 -13.315,-13.477l-0.506,-0.636l-1.176,0.158c-1.622,-3.629 -4.899,-7.139 -7.387,-10.236c-5.668,-7.055 -11.793,-15.577 -19.265,-20.7984c-1.492,-0.4146 -2.143,-0.2764 -3.493,0.485c-4.372,2.4654 -8.312,6.6944 -12.046,10.0544c-9.146,8.231 -18.241,16.685 -26.855,25.472c-4.446,4.535 -8.468,9.448 -13,13.893c-0.723,-3.812 -1.045,-7.686 -1.762,-11.503c-1.583,-8.435 -4.172,-16.06 -9.255,-23.048z" transform="scale(0.666667 0.666667)" fill="#FEFEFD"/>
  <path id="svg_16" d="m321.259,148.191c4.532,-4.445 8.554,-9.358 13,-13.893c8.614,-8.787 17.709,-17.241 26.855,-25.472c3.734,-3.36 7.674,-7.589 12.046,-10.0544c1.35,-0.7614 2.001,-0.8996 3.493,-0.485c7.472,5.2214 13.597,13.7434 19.265,20.7984c2.488,3.097 5.765,6.607 7.387,10.236l1.176,-0.158l0.506,0.636c4.709,4.084 9.136,8.85 13.315,13.477c2.542,2.813 5.374,5.751 7.562,8.847c2.544,3.169 5.26,6.322 7.258,9.874c-0.987,0.867 -1.92,0.944 -3.089,1.375c-2.321,1.059 -11.769,6.321 -13.389,6.228c-0.974,-0.879 -1.303,-1.533 -2.644,-1.552c-2.676,2.105 -5.045,4.725 -7.879,6.596c-5.828,4.824 -12.839,8.205 -19.683,11.332c-16.653,7.607 -34.749,13.959 -53.281,13.964c-6.124,-0.439 -12.58,-0.947 -18.455,-2.816c-2.139,-0.68 -4.37,-1.267 -6.295,-2.457c-2.772,-1.714 -3.469,-3.107 -4.113,-6.196c0.354,-0.488 0.372,-4.492 0.494,-5.396c0.753,-5.537 2.628,-10.669 4.782,-15.792l7.058,-12.401c1.395,-2.051 3.746,-4.444 4.631,-6.691z" transform="scale(0.666667 0.666667)" fill="#FEAEAE"/>
  <path id="svg_17" d="m374.243,114.188l0.7,-0.119l0.235,0.411c-1.225,3.648 -3.424,7.096 -5.382,10.395c-3.512,5.914 -7.219,11.699 -10.822,17.556c-4.467,7.259 -8.612,14.697 -12.91,22.053c-5.276,9.03 -10.559,17.991 -14.884,27.524l-0.992,0.327c-0.751,-0.291 -0.996,-0.634 -1.467,-1.273c0.144,-7.536 38.656,-70.072 45.522,-76.874z" transform="scale(0.666667 0.666667)" fill="#FEFEFD"/>
  <path id="svg_18" d="m404.987,129.799c4.709,4.084 9.136,8.85 13.315,13.477c2.542,2.813 5.374,5.751 7.562,8.847c2.544,3.169 5.26,6.322 7.258,9.874c-0.987,0.867 -1.92,0.944 -3.089,1.375c-2.321,1.059 -11.769,6.321 -13.389,6.228c-0.974,-0.879 -1.303,-1.533 -2.644,-1.552c-2.676,2.105 -5.045,4.725 -7.879,6.596c0.872,-1.591 1.65,-2.257 3.004,-3.361c1.323,-1.079 3.785,-2.944 3.941,-4.595l-0.375,-0.376l0.092,-1.312l-0.09,-0.75c0.849,-1.277 0.802,-3.142 0.837,-4.651c0.183,-7.909 -2.68,-15.718 -5.847,-22.874c-0.767,-1.734 -2.394,-4.061 -2.745,-5.848c-0.099,-0.504 -0.038,-0.637 0.049,-1.078z" transform="scale(0.666667 0.666667)" fill="#FE8487"/>
  <path id="svg_19" d="m430.033,163.372c-0.183,-0.115 -0.419,-0.172 -0.551,-0.344c-0.454,-0.592 -0.676,-2.643 -1.068,-3.479c-1.111,-2.378 -2.709,-4.46 -3.726,-6.904l1.176,-0.522c2.544,3.169 5.26,6.322 7.258,9.874c-0.987,0.867 -1.92,0.944 -3.089,1.375z" transform="scale(0.666667 0.666667)" fill="#F65B67"/>
  <path id="svg_20" d="m376.653,98.2866c7.472,5.2214 13.597,13.7434 19.265,20.7984c2.488,3.097 5.765,6.607 7.387,10.236c-0.008,0.645 0.09,0.844 0.399,1.438c0.932,1.794 1.644,3.821 2.501,5.675c3.299,7.133 7.907,17.278 5.922,25.25c-0.182,0.734 -0.119,0.32 -0.208,1.189l-0.171,1.283c-0.625,2.315 -5.223,6.834 -7.307,7.99c-2.217,1.231 -4.269,3.302 -6.296,4.862c-1.999,1.538 -4.256,2.768 -6.446,4.012c-3.302,-18.914 -8.636,-37.456 -12.201,-56.352c-0.743,-3.941 -1.965,-8.02 -2.442,-11.983c-0.566,-4.712 -0.213,-9.643 -0.403,-14.3984z" transform="scale(0.666667 0.666667)" fill="#FE8487"/>
  <path id="svg_21" d="m245.18,54.2668l-0.528,-1.3183l0.491,-0.3257c1.687,1.977 2.865,4.4121 4.077,6.7013c5.819,10.9845 8.001,24.8669 8.471,37.1667c16.349,-1.8349 34.2,1.5992 47.217,12.1402l5.334,5.009c5.083,6.988 7.672,14.613 9.255,23.048c0.717,3.817 1.039,7.691 1.762,11.503c-0.885,2.247 -3.236,4.64 -4.631,6.691l-7.058,12.401c-2.154,5.123 -4.029,10.255 -4.782,15.792c-0.122,0.904 -0.14,4.908 -0.494,5.396l-0.544,-0.33c-0.55,0.691 -0.836,1.776 -1.5,2.053l-0.493,-0.123c-0.694,-0.132 -1.054,-0.036 -1.713,0.153c-3.352,-3.324 -5.553,-4.539 -10.138,-5.72c0.145,-1.845 -0.392,-3.426 -1.195,-5.066c-1.573,-3.213 -3.537,-6.291 -5.494,-9.28c-0.712,-1.087 -1.165,-2.379 -2.426,-2.792c-0.497,-0.307 -0.7,-0.514 -1.035,-1.016l-1.116,-1.727c-2.153,-3.46 -13.862,-21.161 -16.661,-22.005c-0.991,-0.183 -1.685,-1.071 -2.388,-1.742l-0.468,0.451l-0.935,-1.043c-1.925,0.682 -4.524,6.146 -5.88,8.096c-2.081,2.993 -4.399,6.161 -7.001,8.717c-7.114,6.986 -16.44,12.101 -25.725,15.53c-2.762,1.02 -6.573,2.887 -9.449,3.216l-0.303,0.278c-1.794,-0.335 -2.966,0.758 -4.442,1.738c-3.297,-0.414 -7.787,1.397 -11.01,2.302c-2.426,0.682 -5.036,1.132 -7.531,1.51c-6.821,1.031 -13.898,0.773 -20.744,0.167l-0.171,-0.15c-1.134,0.043 -1.874,0.129 -2.868,-0.529l-1.027,-0.615c4.945,-4.107 10.344,-7.189 15.374,-11.093l7.682,-5.524c0.187,-0.659 0.32,-1.11 0.739,-1.667l0.355,-0.444c1.017,-1.539 2.223,-2.739 3.774,-3.773l0.539,-0.352c0.448,-0.319 0.597,-0.533 1.145,-0.669l0.355,-0.081c0.781,-0.444 1.337,-0.414 2.155,-0.935c-3.903,-5.261 -6.945,-9.354 -8.965,-15.726l0.479,-0.427c-3.251,-6.825 -3.613,-15.342 -1.823,-22.595c3.56,-14.417 15.804,-25.8087 28.051,-33.2379c0.228,-0.2392 0.081,-0.1097 0.528,-0.3629l0.387,-0.2159l0.239,-5.4642l0.137,-1.5061l0.937,0.7425c2.407,-0.604 4.743,-1.0673 6.619,-2.8067c1.02,1.3567 0.001,4.9466 0.776,5.7329c0.258,-0.5515 0.068,-2.502 0.14,-3.2647l0.715,-0.3486c4.901,-1.6889 9.715,-5.3189 13.948,-8.3234c2.495,-1.771 5.821,-4.0717 7.197,-6.8905c1.174,-2.4047 0.02,-4.7823 1.66,-7.0457z" transform="scale(0.666667 0.666667)" fill="#393B48"/>
  <path id="svg_22" d="m221.52,80.1397c0.258,-0.5515 0.068,-2.502 0.14,-3.2647l0.715,-0.3486c4.901,-1.6889 9.715,-5.3189 13.948,-8.3234c2.495,-1.771 5.821,-4.0717 7.197,-6.8905c1.174,-2.4047 0.02,-4.7823 1.66,-7.0457c1.626,5.3383 -0.084,12.0219 -2.609,16.8071c-4.805,9.1079 -12.287,17.1322 -20.457,23.2991l-0.594,-14.2333z" transform="scale(0.666667 0.666667)" fill="#FEFEFD"/>
  <path id="svg_23" d="m244.115,99.614c0.077,0.859 0.05,1.812 0.466,2.573c0.323,0.592 0.232,1.16 0.233,1.819c0.001,0.461 -0.049,0.281 0.098,0.596c-1.941,4.721 -1.998,10.192 -1.327,15.21c0.449,3.361 1.219,6.134 0.808,9.566c-5.574,0.098 -10.502,1.83 -14.421,5.887c-2.855,2.955 -4.966,6.662 -6.678,10.37c-0.973,2.109 -1.878,4.7 -3.092,6.656l-0.548,-1.88l-0.842,-0.372c-0.736,0.325 -1.226,0.546 -2.039,0.523c0.338,-2.617 -0.8,-5.391 -0.81,-8.142c0.703,2.053 0.638,4.592 2.287,6.044c0.757,-0.583 0.563,-0.436 0.684,-1.312c0.731,-5.298 1.067,-10.905 2.354,-16.09c3.118,-12.563 13.361,-23.151 22.827,-31.448z" transform="scale(0.666667 0.666667)" fill="#F65B67"/>
  <path id="svg_24" d="m244.115,99.614l2.447,-2.1273c1.048,0.138 1.879,0.861 2.732,1.442c7.935,3.0023 15.75,6.5053 23.411,10.1523c6.159,2.933 12.586,5.948 17.911,10.269c6.282,5.098 11.476,11.674 16.096,18.275c3.704,5.293 7.426,11.089 9.869,17.091l0.047,0.166l-7.058,12.401c-2.154,5.123 -4.029,10.255 -4.782,15.792c-0.122,0.904 -0.14,4.908 -0.494,5.396l-0.544,-0.33c-0.55,0.691 -0.836,1.776 -1.5,2.053l-0.493,-0.123c-0.694,-0.132 -1.054,-0.036 -1.713,0.153c-3.352,-3.324 -5.553,-4.539 -10.138,-5.72c0.145,-1.845 -0.392,-3.426 -1.195,-5.066c-1.573,-3.213 -3.537,-6.291 -5.494,-9.28c-0.712,-1.087 -1.165,-2.379 -2.426,-2.792c-0.497,-0.307 -0.7,-0.514 -1.035,-1.016l-1.116,-1.727c-2.153,-3.46 -13.862,-21.161 -16.661,-22.005c-0.991,-0.183 -1.685,-1.071 -2.388,-1.742c-0.756,-1.079 -1.547,-2.129 -1.906,-3.415l-0.1,-0.399c-0.553,-2.147 0.637,-3.856 -0.175,-5.899c0.237,-0.781 0.322,-1.525 0.419,-2.333l-0.974,-0.181l-1.51,-0.514l-10.952,1.243c0.411,-3.432 -0.359,-6.205 -0.808,-9.566c-0.671,-5.018 -0.614,-10.489 1.327,-15.21c-0.147,-0.315 -0.097,-0.135 -0.098,-0.596c-0.001,-0.659 0.09,-1.227 -0.233,-1.819c-0.416,-0.761 -0.389,-1.714 -0.466,-2.573z" transform="scale(0.666667 0.666667)" fill="#FE6D63"/>
  <path id="svg_25" d="m253.02,127.136c0.959,0.024 1.902,0.056 2.854,-0.091c0.793,-0.123 1.37,0.486 2.314,0.646c0.389,1.223 0.359,1.947 0.187,3.184l0.375,0.563l-0.375,0.937c0.498,0.503 0.426,0.644 0.559,1.313l0.378,-0.372c0.472,0.633 0.903,1.184 1.231,1.906l0.176,0.434l0.469,-0.465l0.371,0.371l-0.184,0.75l1.309,1.126l-0.186,0.56l-0.092,0.471l-0.468,0.465l0.654,1.316l0.377,0.094c0.529,-1.019 1.408,-1.684 1.875,-2.625c0.472,-0.952 0.831,-1.321 1.633,-2.045l0.335,-0.299l0.004,-0.563c0.465,-0.311 1.097,-0.73 1.403,-1.218c0.441,-0.706 1.125,-1.237 1.5,-1.875c0.744,-1.268 1.857,-1.856 2.625,-3c1.016,-1.515 2.239,-2.641 3.562,-3.938l-0.654,-0.658c-0.604,-1.065 0.292,-0.106 -0.572,-0.971l-0.364,-0.34l0.092,-0.937c-0.346,-0.458 -0.814,-0.927 -1.314,-1.219c-1.19,-0.694 -0.168,0.221 -1.196,-0.82c-0.386,-0.392 -0.628,-0.627 -1.107,-0.932c-1.329,-0.846 -2.813,-1.981 -4.037,-2.982c-1.207,-0.988 -2.451,-2.157 -3.782,-2.956l-1.467,-0.989l0.983,-0.072l15.428,11.563l-15.937,19.15c-0.991,-0.183 -1.685,-1.071 -2.388,-1.742c-0.756,-1.079 -1.547,-2.129 -1.906,-3.415l-0.1,-0.399c-0.553,-2.147 0.637,-3.856 -0.175,-5.899c0.237,-0.781 0.322,-1.525 0.419,-2.333l-0.974,-0.181l-1.51,-0.514l-2.325,-0.999z" transform="scale(0.666667 0.666667)" fill="#FE998D"/>
  <path id="svg_26" d="m244.912,104.602l0.051,0.309c0.325,2.148 0.211,4.305 0.397,6.464c0.304,3.527 1.174,7.063 2.551,10.324c0.738,1.748 1.534,3.449 3.134,4.571c0.617,0.433 1.264,0.64 1.975,0.866l2.325,0.999l-10.952,1.243c0.411,-3.432 -0.359,-6.205 -0.808,-9.566c-0.671,-5.018 -0.614,-10.489 1.327,-15.21z" transform="scale(0.666667 0.666667)" fill="#FEFEFD"/>
  <path id="svg_27" d="m249.294,98.9287c7.935,3.0023 15.75,6.5053 23.411,10.1523c6.159,2.933 12.586,5.948 17.911,10.269c6.282,5.098 11.476,11.674 16.096,18.275c3.704,5.293 7.426,11.089 9.869,17.091l0.047,0.166l-7.058,12.401l-0.176,-0.349c-6.786,-13.116 -12.356,-25.503 -22.872,-36.296c-2.568,-2.635 -5.344,-5.425 -8.606,-7.17l-15.428,-11.563c-3.457,-3.443 -8.254,-5.975 -12.176,-8.943l0,-0.212c0.57,0.195 0.923,0.35 1.401,0.732c0.495,0.397 1.002,0.678 1.506,1.049c0.902,0.666 1.921,1.22 2.771,1.916l1.067,0.809l6.568,4.682l0.563,0.003l0.937,1.121l0.563,0.004l0.937,1.122l0.563,0.003l1.124,1.309l1.032,0.564l0.937,1.03l0.657,0.281l0.468,0.469c0.589,0.434 0.86,0.378 1.424,0.997l0.451,0.503c1.598,1.131 -0.232,-0.631 1.166,0.767l0.428,0.451l0.563,0.004c0.532,0.727 0.889,1.075 1.687,1.496c1.032,-0.136 1.988,-0.897 2.667,-1.65l0.335,-0.41c0.742,-0.246 0.432,-0.051 0.995,-0.614c0.656,-0.656 0.311,-0.372 1.011,-0.891l2.441,-2.078c-0.912,-0.833 -2.22,-1.47 -3.322,-2.046c-0.626,-0.327 -1.059,-0.462 -1.572,-0.973l-0.305,-0.338c-1.024,-0.005 -0.826,-0.079 -1.5,-0.75c-1.05,-0.005 -0.893,-0.146 -1.594,-0.843l-0.656,0.09c-0.38,-0.312 -0.62,-0.533 -1.106,-0.656c-0.578,-0.145 -0.279,-0.023 -0.904,-0.363l-1.363,-0.667l-1.127,-0.564c-0.625,-0.236 -0.936,-0.505 -1.5,-0.75c-0.858,-0.372 -1.838,-0.56 -2.625,-1.125l-0.375,-0.372l-0.75,-0.003c-0.448,-0.379 -0.721,-0.559 -1.287,-0.748c-2.128,-0.71 -4.118,-2.018 -6.211,-2.813l-0.752,-0.189c-0.57,-0.255 -0.963,-0.578 -1.581,-0.799l-1.794,-0.701c-0.522,-0.248 -0.947,-0.52 -1.511,-0.662l-0.364,-0.088c-0.57,-0.222 -0.938,-0.48 -1.558,-0.637c-0.81,-0.205 -1.035,-0.8323 -1.523,-1.4933z" transform="scale(0.666667 0.666667)" fill="#D93B47"/>
  <path id="svg_28" d="m277.916,123.468c3.262,1.745 6.038,4.535 8.606,7.17c10.516,10.793 16.086,23.18 22.872,36.296l0.176,0.349c-2.154,5.123 -4.029,10.255 -4.782,15.792c-0.122,0.904 -0.14,4.908 -0.494,5.396l-0.544,-0.33c-0.55,0.691 -0.836,1.776 -1.5,2.053l-0.493,-0.123c-0.694,-0.132 -1.054,-0.036 -1.713,0.153c-3.352,-3.324 -5.553,-4.539 -10.138,-5.72c0.145,-1.845 -0.392,-3.426 -1.195,-5.066c-1.573,-3.213 -3.537,-6.291 -5.494,-9.28c-0.712,-1.087 -1.165,-2.379 -2.426,-2.792c-0.497,-0.307 -0.7,-0.514 -1.035,-1.016l-1.116,-1.727c-2.153,-3.46 -13.862,-21.161 -16.661,-22.005l15.937,-19.15z" transform="scale(0.666667 0.666667)" fill="#F65B67"/>
  <path id="svg_29" d="m213.051,77.9771c0.957,1.0295 1.247,1.9049 1.505,3.2828c0.841,4.482 0.597,9.6779 0.728,14.2772c0.445,15.6459 -0.487,31.2589 0.679,46.8829c0.01,2.751 1.148,5.525 0.81,8.142c0.813,0.023 1.303,-0.198 2.039,-0.523l0.842,0.372l0.548,1.88c1.214,-1.956 2.119,-4.547 3.092,-6.656c1.712,-3.708 3.823,-7.415 6.678,-10.37c3.919,-4.057 8.847,-5.789 14.421,-5.887l10.952,-1.243l1.51,0.514l0.974,0.181c-0.097,0.808 -0.182,1.552 -0.419,2.333c0.812,2.043 -0.378,3.752 0.175,5.899l0.1,0.399c0.359,1.286 1.15,2.336 1.906,3.415l-0.468,0.451l-0.935,-1.043c-1.925,0.682 -4.524,6.146 -5.88,8.096c-2.081,2.993 -4.399,6.161 -7.001,8.717c-7.114,6.986 -16.44,12.101 -25.725,15.53c-2.762,1.02 -6.573,2.887 -9.449,3.216l-0.303,0.278c-1.794,-0.335 -2.966,0.758 -4.442,1.738c-3.297,-0.414 -7.787,1.397 -11.01,2.302c-2.426,0.682 -5.036,1.132 -7.531,1.51c-6.821,1.031 -13.898,0.773 -20.744,0.167l-0.171,-0.15c-1.134,0.043 -1.874,0.129 -2.868,-0.529l-1.027,-0.615c4.945,-4.107 10.344,-7.189 15.374,-11.093l7.682,-5.524c0.187,-0.659 0.32,-1.11 0.739,-1.667l0.355,-0.444c1.017,-1.539 2.223,-2.739 3.774,-3.773l0.539,-0.352c0.448,-0.319 0.597,-0.533 1.145,-0.669l0.355,-0.081c0.781,-0.444 1.337,-0.414 2.155,-0.935c-3.903,-5.261 -6.945,-9.354 -8.965,-15.726l0.479,-0.427c-3.251,-6.825 -3.613,-15.342 -1.823,-22.595c3.56,-14.417 15.804,-25.8087 28.051,-33.2379c0.228,-0.2392 0.081,-0.1097 0.528,-0.3629l0.387,-0.2159l0.239,-5.4642z" transform="scale(0.666667 0.666667)" fill="url(#gradient_0)"/>
  <path id="svg_30" d="m210.248,162.371l-0.325,-0.301c0.439,-0.224 0.735,-0.309 1.016,-0.726l-0.726,-0.281c1.685,-2.042 0.2,-4.8 2.244,-6.593c0.746,1.75 1.439,3.215 2.56,4.766l0.728,1.037c-1.665,0.865 -3.572,2.071 -5.497,2.098z" transform="scale(0.666667 0.666667)" fill="#393B48"/>
  <path id="svg_31" d="m194.155,156.006c1.442,1.675 2.673,3.34 3.843,5.215c-1.962,0.733 -4.104,0.754 -6.165,1.055c-2.325,0.339 -4.502,0.948 -6.74,1.651c0.187,-0.659 0.32,-1.11 0.739,-1.667l0.355,-0.444c1.017,-1.539 2.223,-2.739 3.774,-3.773l0.539,-0.352c0.448,-0.319 0.597,-0.533 1.145,-0.669l0.355,-0.081c0.781,-0.444 1.337,-0.414 2.155,-0.935z" transform="scale(0.666667 0.666667)" fill="#3B545D"/>
  <path id="svg_32" d="m255.345,128.135l1.51,0.514c-1.348,2.247 -3.361,3.147 -5.634,4.286c-4.804,2.408 -9.988,3.975 -15.044,5.747c-2.641,0.926 -5.898,1.86 -8.129,3.602c-1.42,1.11 -2.637,2.742 -3.458,4.341c-0.806,1.569 -2.922,8.319 -4.047,8.897c-0.6,-0.971 -0.385,-2.134 -0.341,-3.231c1.214,-1.956 2.119,-4.547 3.092,-6.656c1.712,-3.708 3.823,-7.415 6.678,-10.37c3.919,-4.057 8.847,-5.789 14.421,-5.887l10.952,-1.243z" transform="scale(0.666667 0.666667)" fill="#3B545D"/>
  <path id="svg_33" d="m163.064,181.159c0.493,-0.074 1.038,0.008 1.481,-0.221c0.402,-0.209 1.304,-1.467 1.668,-1.861c1.235,-1.337 3.249,-2.963 5.065,-3.34c1.599,-0.332 3.641,-0.15 5.288,-0.174c3.034,-0.044 6.005,-0.18 9.014,-0.617c9.383,-1.364 17.805,-4.868 26.786,-7.684l-0.07,0.603l-0.082,1.447c-0.049,1.797 -0.276,3.498 -0.661,5.25l-0.363,0.287c-0.387,0.314 -0.716,0.632 -1.057,0.994l-0.303,0.278c-1.794,-0.335 -2.966,0.758 -4.442,1.738c-3.297,-0.414 -7.787,1.397 -11.01,2.302c-2.426,0.682 -5.036,1.132 -7.531,1.51c-6.821,1.031 -13.898,0.773 -20.744,0.167l-0.171,-0.15c-1.134,0.043 -1.874,0.129 -2.868,-0.529z" transform="scale(0.666667 0.666667)" fill="#FE998D"/>
  <path id="svg_34" d="m257.41,131.163c0.812,2.043 -0.378,3.752 0.175,5.899l0.1,0.399c0.359,1.286 1.15,2.336 1.906,3.415l-0.468,0.451l-0.935,-1.043c-1.925,0.682 -4.524,6.146 -5.88,8.096c-2.081,2.993 -4.399,6.161 -7.001,8.717c-7.114,6.986 -16.44,12.101 -25.725,15.53c-2.762,1.02 -6.573,2.887 -9.449,3.216c0.341,-0.362 0.67,-0.68 1.057,-0.994l0.363,-0.287c0.385,-1.752 0.612,-3.453 0.661,-5.25l0.082,-1.447l0.07,-0.603l2.521,-0.744c7.692,-2.515 15.476,-6.263 21.811,-11.345c5.239,-4.203 9.676,-9.331 13.866,-14.548c2.436,-3.034 5.068,-5.977 6.846,-9.462z" transform="scale(0.666667 0.666667)" fill="#F65B67"/>
  <path id="svg_35" d="m211.897,84.0201c1.037,2.801 0.319,8.129 0.27,11.245c-0.104,6.5419 -0.17,13.1169 -0.509,19.6509c-0.677,13.023 -2.059,26.712 0.799,39.554c-2.044,1.793 -0.559,4.551 -2.244,6.593l0.726,0.281c-0.281,0.417 -0.577,0.502 -1.016,0.726l0.325,0.301c-0.317,0.139 -0.445,0.215 -0.763,0.293c-3.332,0.818 -6.23,-1.386 -8.859,-3.09c-0.612,0.721 -1.182,1.536 -2.204,1.671l-0.424,-0.024c-1.17,-1.875 -2.401,-3.54 -3.843,-5.215c-3.903,-5.261 -6.945,-9.354 -8.965,-15.726l0.479,-0.427c-3.251,-6.825 -3.613,-15.342 -1.823,-22.595c3.56,-14.417 15.804,-25.8087 28.051,-33.2379z" transform="scale(0.666667 0.666667)" fill="#4F5262"/>
  <path id="svg_36" d="m185.669,139.853c4.117,7.622 8.176,14.105 14.957,19.721c-0.612,0.721 -1.182,1.536 -2.204,1.671l-0.424,-0.024c-1.17,-1.875 -2.401,-3.54 -3.843,-5.215c-3.903,-5.261 -6.945,-9.354 -8.965,-15.726l0.479,-0.427z" transform="scale(0.666667 0.666667)" fill="#FEFEFD"/>
  <path id="svg_37" d="m504.402,141.761c3.955,3.733 8.324,6.927 12.671,10.179c10.762,8.052 22.087,15.197 33.153,22.801c7.635,5.246 15.049,10.809 22.693,16.037c7.768,5.313 15.832,10.188 23.66,15.414c4.289,2.864 8.431,5.976 12.71,8.868c11.94,8.071 23.996,15.979 35.974,23.991l-88.025,48.572c-13.798,9 -27.525,18.284 -42.021,26.13c-2.339,1.266 -4.989,3.203 -7.475,4.045c-0.772,0.261 -1.367,0.706 -2.148,0.962l-9,4.867l-0.386,0.152c-1.077,0.48 -1.785,1.392 -2.9,1.858c-0.643,0.268 -0.633,0.495 -1.12,0.804l-0.469,0.186c-0.695,0.286 -1.296,0.596 -1.893,1.06c-0.959,0.746 -2.088,1.288 -3.152,1.871c-0.333,0.181 -0.716,0.26 -1.047,0.444l-0.259,0.27c-0.443,0.444 -1.605,1.072 -2.18,1.419l-0.469,0.186c-1.854,0.852 -3.493,2.125 -5.342,3c-0.94,0.445 -1.627,1.079 -2.625,1.5c-0.639,0.269 -0.862,0.937 -1.089,1.525c-0.765,-1.52 -4.124,-3.159 -5.602,-4.139c-4.574,-3.035 -22.101,-14.08 -22.947,-18.961c-0.179,-1.034 -0.248,-0.839 -1.042,-1.437l0.064,-0.313c8.123,1.89 16.509,2.731 24.846,2.222c17.969,-1.097 38.368,-6.367 50.693,-20.393c5.608,-6.382 9.455,-14.088 10.152,-22.631c0.32,-3.92 -0.091,-7.972 -0.328,-11.894c-0.856,-2.203 -1.252,-4.903 -1.597,-7.25c-4.373,-23.688 -13.516,-46.802 -29.355,-65.196c-0.129,-0.711 -1.387,-1.947 -1.886,-2.542c-3.019,-3.6 -6.389,-6.692 -9.882,-9.813c9.733,-8.385 15.008,-21.505 17.623,-33.794z" transform="scale(0.666667 0.666667)" fill="#FEFEFD"/>
  <path id="svg_38" d="m553.96,215.006c-1.1,-0.457 -2.332,-1 -3.272,-1.738c-2.274,-1.785 -3.102,-6.135 -3.308,-8.868c-0.094,-1.237 -0.219,-2.627 0.608,-3.588c0.625,-0.103 1.193,-0.186 1.828,-0.114c3.824,0.43 6.296,3.971 8.43,6.8c0.033,1.067 0.094,2.035 0.274,3.084c0.153,0.894 -0.022,1.424 -0.227,2.279c-0.122,0.509 -0.143,0.931 -0.109,1.451l-0.35,0.339c-0.492,0.509 -0.331,0.287 -0.573,0.974l-3.301,-0.619z" transform="scale(0.666667 0.666667)" fill="#FEAEAE"/>
  <path id="svg_39" d="m558.246,207.498c0.489,-2.286 1.153,-3.699 3.129,-5.025c3.06,-2.053 6.235,-3.249 9.937,-2.846c1.129,0.697 1.73,1.136 2.371,2.311c0.232,2.073 0.168,3.837 -0.101,5.899c-0.327,1.817 -0.836,3.566 -1.706,5.205c-0.734,1.381 -1.775,2.727 -2.24,4.218c-1.433,1.59 -3.535,2.614 -5.475,3.474c-2.1,-2.276 -4.281,-3.52 -6.9,-5.109c0.242,-0.687 0.081,-0.465 0.573,-0.974l0.35,-0.339c-0.034,-0.52 -0.013,-0.942 0.109,-1.451c0.205,-0.855 0.38,-1.385 0.227,-2.279c-0.18,-1.049 -0.241,-2.017 -0.274,-3.084z" transform="scale(0.666667 0.666667)" fill="#FE9896"/>
  <path id="svg_40" d="m533.315,246.661c0.566,-2.528 2.108,-5.089 3.276,-7.411c2.89,-5.747 6.013,-10.946 9.863,-16.092c2.221,-2.968 4.52,-5.919 7.506,-8.152l3.301,0.619c2.619,1.589 4.8,2.833 6.9,5.109c-5.539,3.507 -9.666,8.38 -14.478,12.757c-3.419,3.11 -7.206,5.824 -10.805,8.721c-1.758,1.415 -3.611,3.376 -5.563,4.449z" transform="scale(0.666667 0.666667)" fill="#FE998D"/>
  <path id="svg_41" d="m569.636,217.26c0.465,-1.491 1.506,-2.837 2.24,-4.218c0.87,-1.639 1.379,-3.388 1.706,-5.205l0.528,0.13l1.621,0.262c6.155,0.741 13.032,3.814 18.329,6.933l0.495,0.286c5.067,2.966 10.163,7.66 11.699,13.491c1.605,6.092 0.796,13.105 -2.419,18.555c-8.15,13.815 -25.053,21.322 -39.963,24.974l-17.675,3.957c1.823,1.939 3.635,3.912 5.6,5.707c1.793,1.638 4.369,3.291 5.441,5.491c-13.798,9 -27.525,18.284 -42.021,26.13c-2.339,1.266 -4.989,3.203 -7.475,4.045c-0.772,0.261 -1.367,0.706 -2.148,0.962l-9,4.867l-0.386,0.152c-1.077,0.48 -1.785,1.392 -2.9,1.858c-0.643,0.268 -0.633,0.495 -1.12,0.804l-0.469,0.186c-0.695,0.286 -1.296,0.596 -1.893,1.06c-0.959,0.746 -2.088,1.288 -3.152,1.871c-0.333,0.181 -0.716,0.26 -1.047,0.444l-0.259,0.27c-0.443,0.444 -1.605,1.072 -2.18,1.419l-0.469,0.186c-1.854,0.852 -3.493,2.125 -5.342,3c-0.94,0.445 -1.627,1.079 -2.625,1.5c-0.639,0.269 -0.862,0.937 -1.089,1.525c-0.765,-1.52 -4.124,-3.159 -5.602,-4.139c-4.574,-3.035 -22.101,-14.08 -22.947,-18.961c-0.179,-1.034 -0.248,-0.839 -1.042,-1.437l0.064,-0.313c8.123,1.89 16.509,2.731 24.846,2.222c17.969,-1.097 38.368,-6.367 50.693,-20.393c5.608,-6.382 9.455,-14.088 10.152,-22.631c0.32,-3.92 -0.091,-7.972 -0.328,-11.894c-0.856,-2.203 -1.252,-4.903 -1.597,-7.25l5.413,-6.445c1.952,-1.073 3.805,-3.034 5.563,-4.449c3.599,-2.897 7.386,-5.611 10.805,-8.721c4.812,-4.377 8.939,-9.25 14.478,-12.757c1.94,-0.86 4.042,-1.884 5.475,-3.474z" transform="scale(0.666667 0.666667)" fill="#FDD0C3"/>
  <path id="svg_42" d="m564.161,220.734c1.94,-0.86 4.042,-1.884 5.475,-3.474c3.654,3.205 5.26,6.901 5.605,11.747c0.569,7.995 -3.442,16.379 -8.645,22.241c-6.616,7.457 -15.446,11.122 -25.298,11.62c-4.093,0.206 -7.95,-1.278 -11.799,-2.512c-0.856,-2.203 -1.252,-4.903 -1.597,-7.25l5.413,-6.445c1.952,-1.073 3.805,-3.034 5.563,-4.449c3.599,-2.897 7.386,-5.611 10.805,-8.721c4.812,-4.377 8.939,-9.25 14.478,-12.757z" transform="scale(0.666667 0.666667)" fill="#F65B67"/>
  <path id="svg_43" d="m645.37,419.382c9.402,2.098 18.055,5.91 26.531,10.408c12.491,6.629 23.554,14.054 31.31,26.183c5.207,8.143 8.377,18.256 6.452,27.902l-0.123,0.67c-0.757,3.989 -2.817,7.295 -5.293,10.444c8.264,3.26 18.163,7.929 24.639,14.193c0.553,4.097 0.504,8.209 -0.399,12.256l-0.107,0.523c-1.36,6.446 -6.199,12.294 -11.428,16.116c-8.931,6.529 -18.611,10.641 -28.452,15.531c-15.491,7.699 -31.063,15.261 -46.49,23.085c-25.754,13.062 -51.497,26.135 -77.26,39.177c-7.374,3.732 -14.734,7.486 -22.125,11.187c-6.319,3.163 -13.392,6.845 -20.339,8.301c-5.721,1.198 -12.691,0.404 -18.474,0.052c-10.933,-0.665 -22.182,-1.549 -33.004,-3.16l-9.998,-1.769l58.892,-31.102c16.889,-8.773 33.48,-18.178 50.16,-27.344c19.618,-10.78 39.342,-21.401 59.013,-32.09c12.268,-6.666 24.6,-13.217 36.883,-19.856c8.42,-4.551 17.73,-9.23 25.421,-14.896c4.857,-3.578 7.857,-7.04 9.679,-12.798c-4.392,-3.077 -9.537,-5.533 -14.254,-8.101c-8.724,-4.751 -17.487,-9.42 -26.229,-14.135c-4.614,-2.489 -9.218,-4.994 -13.818,-7.509c-2.345,-1.282 -4.83,-2.981 -7.369,-3.758l-0.515,0.788c-0.107,-0.576 -0.149,-0.944 -0.15,-1.512c-0.002,-2.788 -0.141,-6.338 1.809,-8.56c1.079,-1.23 2.496,-2.156 3.651,-3.323c0.402,-0.407 1.362,-1.197 1.605,-1.671c0.486,-0.947 0.157,-3.654 0.155,-4.821c-0.008,-6.815 -0.339,-13.606 -0.373,-20.411z" transform="scale(0.666667 0.666667)" fill="#F65B67"/>
  <path id="svg_44" d="m402.013,562.659c13.204,-7.251 24.859,-17.073 37.396,-25.347c5.835,-3.851 11.928,-7.235 17.903,-10.848c12.191,-7.371 24.46,-14.82 36.357,-22.652c6.831,-4.496 13.365,-9.452 20.224,-13.906c11.777,-7.647 23.8,-14.912 35.446,-22.767c19.719,-13.3 39.061,-27.22 59.035,-40.133c5.183,-3.351 10.61,-6.336 15.874,-9.558c3.736,-2.286 7.473,-4.572 11.248,-6.793c3.023,-1.779 6.035,-3.639 9.488,-4.423c-0.006,2.989 -0.008,5.979 0.001,8.968c0.004,1.304 -0.2,2.793 0.313,4.003l0.072,0.179c0.034,6.805 0.365,13.596 0.373,20.411c0.002,1.167 0.331,3.874 -0.155,4.821c-0.243,0.474 -1.203,1.264 -1.605,1.671c-1.155,1.167 -2.572,2.093 -3.651,3.323c-1.95,2.222 -1.811,5.772 -1.809,8.56c0.001,0.568 0.043,0.936 0.15,1.512c-0.1,6.385 -2.07,12.151 -6.737,16.693c-5.574,5.426 -12.585,7.851 -20.308,7.721l-4.287,-0.322l-0.068,0.395c-1.17,6.436 -5.449,13.153 -10.816,16.936c-3.84,2.707 -8.237,4.462 -12.728,5.739c-6.3,1.793 -13.825,0.55 -19.946,-1.414l-0.106,0.534c-1.67,8.125 -5.788,15.104 -12.805,19.703c-8.244,5.402 -17.027,6.746 -26.581,4.609l-5.11,-1.528c-1.129,9.251 -5.072,17.198 -12.5,23.027c-3.849,3.02 -8.128,4.978 -12.765,6.472c-5.891,1.37 -11.753,1.791 -17.505,-0.335c-0.691,-0.256 -0.408,-0.198 -1.177,-0.094l-0.35,0.498c-0.839,6.906 -6.063,13.535 -11.408,17.7c-2.564,1.997 -5.279,3.325 -8.254,4.592c-3.073,0.987 -6.007,1.745 -9.241,1.942l-6.997,0.073c-3.584,5.442 -7.659,10.364 -14.437,11.734c-1.48,0.299 -2.909,0.397 -4.371,-0.039c-5.055,-1.507 -10.842,-7.645 -15.268,-0.725c-1.566,2.448 -1.81,6.665 -2.069,9.532l-0.826,-40.464z" transform="scale(0.666667 0.666667)" fill="#FE998D"/>
  <path id="svg_45" d="m445.981,582.548c0.751,-0.698 1.138,-1.232 2.144,-1.482l0.189,-0.472c-1.139,-0.545 -2.319,-1.359 -3.562,-1.617c-1.307,-0.272 -2.066,-0.545 -3.186,-1.289l0.372,-0.372c0.64,0.101 1.241,0.199 1.861,0.395l11.423,2.895c-3.073,0.987 -6.007,1.745 -9.241,1.942z" transform="scale(0.666667 0.666667)" fill="#F65B67"/>
  <path id="svg_46" d="m474.884,558.314c-0.906,-0.826 -1.232,-7.514 -1.398,-8.963c3.918,1.393 7.94,2.922 12.026,3.732c1.53,0.304 4.541,0.306 5.733,1.234c0.53,0.413 0.426,1.892 0.483,2.558c0.698,1.052 1.02,0.992 2.188,1.37c-5.891,1.37 -11.753,1.791 -17.505,-0.335c-0.691,-0.256 -0.408,-0.198 -1.177,-0.094l-0.35,0.498z" transform="scale(0.666667 0.666667)" fill="#FE8487"/>
  <path id="svg_47" d="m642.788,274.688c0.715,-0.172 0.363,-0.213 1.046,0.187l0.462,68.787c-3.12,1 -6.043,2.781 -8.858,4.421c-4.023,2.342 -8.009,4.736 -12,7.129c-15.474,9.276 -30.418,19.075 -45.563,28.87c-12.963,8.382 -25.984,16.683 -38.854,25.203l-136.083,92.457l-0.492,-0.59c-0.722,-12.502 -1.098,-25.023 -1.152,-37.545c-0.029,-6.498 -0.275,-13.234 0.576,-19.682l0.475,-3.3c1.348,-7.489 4.129,-14.286 9.633,-19.647c7.257,-7.07 16.65,-12.01 25.169,-17.382c10.252,-6.465 20.413,-13.078 30.654,-19.562c35.708,-22.608 71.202,-45.655 107.205,-67.796c14.918,-9.174 29.803,-18.404 44.752,-27.527c7.624,-4.653 15.728,-8.893 23.03,-14.023z" transform="scale(0.666667 0.666667)" fill="#F65B67"/>
  <path id="svg_48" d="m638.673,459.68l0.515,-0.788c2.539,0.777 5.024,2.476 7.369,3.758c4.6,2.515 9.204,5.02 13.818,7.509c8.742,4.715 17.505,9.384 26.229,14.135c4.717,2.568 9.862,5.024 14.254,8.101c-1.822,5.758 -4.822,9.22 -9.679,12.798c-7.691,5.666 -17.001,10.345 -25.421,14.896c-12.283,6.639 -24.615,13.19 -36.883,19.856c-19.671,10.689 -39.395,21.31 -59.013,32.09c-16.68,9.166 -33.271,18.571 -50.16,27.344l-58.892,31.102l-76.538,33.585l0.109,-41.109c3.931,-0.52 7.06,-1.386 10.195,-3.879c4.994,-3.971 7.505,-9.721 8.263,-15.955c0.259,-2.867 0.503,-7.084 2.069,-9.532c4.426,-6.92 10.213,-0.782 15.268,0.725c1.462,0.436 2.891,0.338 4.371,0.039c6.778,-1.37 10.853,-6.292 14.437,-11.734l6.997,-0.073c3.234,-0.197 6.168,-0.955 9.241,-1.942c2.975,-1.267 5.69,-2.595 8.254,-4.592c5.345,-4.165 10.569,-10.794 11.408,-17.7l0.35,-0.498c0.769,-0.104 0.486,-0.162 1.177,0.094c5.752,2.126 11.614,1.705 17.505,0.335c4.637,-1.494 8.916,-3.452 12.765,-6.472c7.428,-5.829 11.371,-13.776 12.5,-23.027l5.11,1.528c9.554,2.137 18.337,0.793 26.581,-4.609c7.017,-4.599 11.135,-11.578 12.805,-19.703l0.106,-0.534c6.121,1.964 13.646,3.207 19.946,1.414c4.491,-1.277 8.888,-3.032 12.728,-5.739c5.367,-3.783 9.646,-10.5 10.816,-16.936l0.068,-0.395l4.287,0.322c7.723,0.13 14.734,-2.295 20.308,-7.721c4.667,-4.542 6.637,-10.308 6.737,-16.693z" transform="scale(0.666667 0.666667)" fill="#393B48"/>
  <path id="svg_49" d="m389.527,697.205c18.626,-0.164 37.727,-3.626 55.296,-9.784c8.185,-2.869 16.128,-6.537 24.027,-10.107c11.765,-5.317 23.414,-10.805 35.095,-16.3c36.132,-16.997 71.828,-34.794 107.762,-52.202c11.211,-5.431 22.55,-10.596 33.765,-16.022c12.667,-6.128 25.217,-12.502 37.911,-18.582c12.496,-5.984 25.804,-11.177 37.703,-18.289c5.241,-3.133 10.029,-6.794 14.012,-11.46c2.679,-3.139 4.441,-7.367 7.97,-9.581l0.362,-0.222c0.295,2.208 0.046,4.553 -0.058,6.777c-0.187,4.033 -0.351,8.163 -1.349,12.09c-3.625,14.26 -14.735,23.436 -27.01,30.618c-8.413,4.923 -17.15,8.915 -25.966,13.029c-9.646,4.502 -19.273,9.033 -28.955,13.458c-25.838,11.81 -51.56,23.866 -77.342,35.796c-25.105,11.617 -50.209,23.293 -75.218,35.113c-15.135,7.154 -30.265,14.152 -45.694,20.658c-11.841,4.994 -23.502,9.809 -36.036,12.848c-27.863,6.756 -58.872,6.973 -86.614,-0.289c-18.304,-4.791 -35.132,-13.141 -52.449,-20.534c-39.57,-16.895 -78.337,-35.29 -117.335,-53.439c-24.58,-11.439 -49.049,-23.091 -73.5525,-34.692c-14.3857,-6.81 -29.3383,-12.855 -42.9765,-21.126c-8.4085,-5.1 -16.8582,-11.568 -21.8119,-20.237c-4.0823,-7.143 -5.1621,-14.771 -5.1861,-22.878c-0.0071,-2.382 -0.1761,-4.887 0.4705,-7.199l0.245,0.298c1.5469,1.914 2.7406,4.054 4.2565,5.985c4.455,5.674 10.0988,9.636 16.1534,13.404c10.4362,6.495 22.0977,10.939 33.2456,16.034c14.479,6.617 28.92,13.628 43.203,20.671c7.864,3.878 15.538,8.148 23.42,11.991c20.198,9.847 40.643,19.209 60.974,28.775c16.278,7.659 32.438,15.584 48.708,23.27c12.577,5.941 25.187,11.805 37.753,17.771c10.21,4.847 20.414,9.989 30.983,14.011c13.24,5.037 26.886,7.723 40.929,9.294l23.309,1.052z" transform="scale(0.666667 0.666667)" fill="#4F5262"/>
  <path id="svg_50" d="m119.359,419.67c0.359,-0.72 0.336,-1.719 0.423,-2.521l1.316,-0.186c7.029,2.287 13.465,6.934 19.902,10.505c10.497,5.823 21.116,11.249 31.489,17.332c12.251,7.184 24.127,15.057 36.386,22.233c11.417,6.682 23.402,12.321 34.802,19.02c6.483,3.809 12.742,8.04 19.216,11.883c8.73,5.183 17.66,10.023 26.351,15.277c4.639,2.804 9.066,5.982 13.74,8.718c4.615,2.702 9.388,5.114 13.972,7.877c9.562,5.764 18.931,12.034 28.353,18.043c5.906,3.767 12.428,7.292 17.892,11.635c0.504,0.401 0.296,0.269 0.989,0.423c0.62,4.061 0.26,8.578 0.256,12.695c-0.006,6.724 0.273,13.608 -0.443,20.298l0.042,0.441c0.327,3.762 -0.042,7.636 0.515,11.364c0.787,5.276 3.614,9.896 7.646,13.324c3.219,2.737 6.63,3.97 10.739,4.745l1.436,0.181l-0.109,41.109c-4.588,0.522 -10.612,-2.329 -14.873,-3.985c-34.538,-13.424 -67.465,-30.158 -100.315,-47.223c-28.158,-14.628 -56.221,-29.465 -84.022,-44.765c-14.49,-7.974 -28.816,-16.267 -43.292,-24.276c-14.436,-7.989 -28.916,-15.944 -43.4186,-23.812c-7.8672,-4.268 -16.6069,-8.031 -23.6858,-13.541c-5.0312,-3.916 -7.3538,-9.098 -9.8535,-14.778l0.2019,-0.643c0.4377,-0.905 2.4645,-1.819 3.3634,-2.318c10.3696,-5.752 21.0515,-10.983 31.477,-16.65c5.8726,-3.192 11.7446,-6.383 17.6346,-9.543c2.367,-1.271 4.633,-2.801 7.065,-3.923c-0.261,-2.985 -2.703,-2.922 -4.587,-4.695c-0.928,-0.873 -1.173,-1.441 -1.295,-2.717c-0.396,-4.152 0.338,-8.756 0.493,-12.923c0.229,-6.186 0.144,-12.412 0.194,-18.604z" transform="scale(0.666667 0.666667)" fill="#4F5262"/>
  <path id="svg_51" d="m124.758,458.925c1.696,0.832 1.863,1.117 2.507,2.953c0.792,2.255 1.275,4.594 2.297,6.771c1.662,3.539 4.617,6.609 7.372,9.322c1.644,1.618 3.56,3.168 5.026,4.941l-1.393,1.182c-3.081,-1.199 -5.78,-2.927 -8.16,-5.227c-5.918,-5.717 -7.536,-11.957 -7.649,-19.942z" transform="scale(0.666667 0.666667)" fill="#FEFEFD"/>
  <path id="svg_52" d="m119.359,419.67c0.359,-0.72 0.336,-1.719 0.423,-2.521l1.316,-0.186c7.029,2.287 13.465,6.934 19.902,10.505c10.497,5.823 21.116,11.249 31.489,17.332c12.251,7.184 24.127,15.057 36.386,22.233c11.417,6.682 23.402,12.321 34.802,19.02c6.483,3.809 12.742,8.04 19.216,11.883c8.73,5.183 17.66,10.023 26.351,15.277c4.639,2.804 9.066,5.982 13.74,8.718c4.615,2.702 9.388,5.114 13.972,7.877c9.562,5.764 18.931,12.034 28.353,18.043c5.906,3.767 12.428,7.292 17.892,11.635c0.504,0.401 0.296,0.269 0.989,0.423c0.62,4.061 0.26,8.578 0.256,12.695c-0.006,6.724 0.273,13.608 -0.443,20.298c-0.877,-1.154 -2.09,-2.593 -3.525,-3.012c-2.75,-0.802 -6.867,1.75 -9.312,2.92c-0.882,0.453 -1.786,0.798 -2.765,0.985c-3.905,0.743 -8.828,-1.515 -11.997,-3.714c-6.736,-4.675 -11.759,-11.541 -13.228,-19.652l-0.514,0.232c-0.559,0.259 -1.002,0.574 -1.505,0.926c-4.223,2.956 -11.03,2.288 -15.875,1.414c-2.144,-0.387 -4.164,-1.116 -6.179,-1.932c-2.729,-1.272 -5.21,-2.579 -7.606,-4.412c-5.913,-4.525 -10.442,-11.317 -11.427,-18.813l-0.877,-0.283l-0.366,0.258c-4.521,3.089 -11.54,3.269 -16.776,2.233c-0.97,-0.191 -1.913,-0.385 -2.832,-0.763c-3.008,-1.19 -5.811,-2.519 -8.453,-4.405c-4.972,-3.55 -9.87,-9.447 -10.856,-15.638c-0.228,-1.325 0.026,-2.566 -0.472,-3.835c-5.658,2.672 -13.949,4.114 -20.039,2.015l-1.919,-0.616c-3.304,-1.243 -6.408,-2.652 -9.22,-4.822c-5.509,-4.249 -9.135,-10.856 -10.004,-17.721l-0.437,0.124c-0.566,0.189 -0.948,0.4 -1.457,0.682c-5.678,3.145 -13.46,3.833 -19.635,2.037c-1.541,-0.449 -2.928,-1.086 -4.348,-1.828c-5.933,-2.906 -9.546,-5.943 -13.225,-11.433c-1.556,-2.198 -2.209,-4.352 -2.572,-6.99c-0.145,-0.915 -0.015,-0.471 -0.394,-1.331c-4.526,1.298 -11.341,0.567 -15.621,-1.434l1.393,-1.182c-1.466,-1.773 -3.382,-3.323 -5.026,-4.941c-2.755,-2.713 -5.71,-5.783 -7.372,-9.322c-1.022,-2.177 -1.505,-4.516 -2.297,-6.771c-0.644,-1.836 -0.811,-2.121 -2.507,-2.953l-0.204,-0.316c-0.261,-2.985 -2.703,-2.922 -4.587,-4.695c-0.928,-0.873 -1.173,-1.441 -1.295,-2.717c-0.396,-4.152 0.338,-8.756 0.493,-12.923c0.229,-6.186 0.144,-12.412 0.194,-18.604z" transform="scale(0.666667 0.666667)" fill="#FDD0C3"/>
  <path id="svg_53" d="m165.436,497.017l0.689,-0.858c2.463,0.079 5.277,2.793 7.314,4.24c1.093,0.777 2.415,1.495 3.421,2.371c0.284,0.248 0.361,0.386 0.555,0.665c-1.17,0.795 -1.62,1.284 -3.054,1.367l-3.13,-1.988c-1.226,-0.872 -2.514,-1.692 -3.921,-2.249c-0.972,-0.384 -1.429,-0.821 -2.185,-1.543l0.311,-2.005z" transform="scale(0.666667 0.666667)" fill="#FEFEFD"/>
  <path id="svg_54" d="m141.96,482.912c2.425,-0.646 4.866,-0.985 7.29,-1.748c4.397,-1.383 8.655,-3.278 13.009,-4.817l-1.514,3.711l-1.859,3.407c-1.252,1.205 -1.981,1.588 -2.304,3.394c-0.145,-0.915 -0.015,-0.471 -0.394,-1.331c-4.526,1.298 -11.341,0.567 -15.621,-1.434l1.393,-1.182z" transform="scale(0.666667 0.666667)" fill="#FE998D"/>
  <path id="svg_55" d="m219.399,527.426c6.149,-1.956 10.996,-7.193 17.02,-8.988c2.108,-0.629 3.986,-0.566 5.926,0.462c-1.766,3.598 -2.507,6.304 -2.435,10.346c-0.228,-1.325 0.026,-2.566 -0.472,-3.835c-5.658,2.672 -13.949,4.114 -20.039,2.015z" transform="scale(0.666667 0.666667)" fill="#FE9896"/>
  <path id="svg_56" d="m160.745,480.058l1.067,-1.089c1.604,0.856 3.201,3.967 3.665,5.712c0.611,2.297 0.156,4.704 -0.469,6.947c-0.534,1.917 -1.606,2.902 -0.838,4.872c0.428,0.205 0.805,0.402 1.266,0.517l-0.311,2.005c0.756,0.722 1.213,1.159 2.185,1.543c1.407,0.557 2.695,1.377 3.921,2.249l3.13,1.988l-1.982,0.48c-5.933,-2.906 -9.546,-5.943 -13.225,-11.433c-1.556,-2.198 -2.209,-4.352 -2.572,-6.99c0.323,-1.806 1.052,-2.189 2.304,-3.394l1.859,-3.407z" transform="scale(0.666667 0.666667)" fill="#FDE2D3"/>
  <path id="svg_57" d="m158.886,483.465l1.129,0.689c0.392,2.776 0.557,7.297 -0.861,9.695c-1.556,-2.198 -2.209,-4.352 -2.572,-6.99c0.323,-1.806 1.052,-2.189 2.304,-3.394z" transform="scale(0.666667 0.666667)" fill="#FEFEFD"/>
  <path id="svg_58" d="m201.498,495.722c0.943,4.872 0.988,10.006 3.031,14.612c1.407,3.174 4.305,6.167 6.935,8.388c2.026,1.71 6.725,4.457 7.553,6.84c-0.472,0.683 -0.784,0.903 -1.537,1.248c-3.304,-1.243 -6.408,-2.652 -9.22,-4.822c-5.509,-4.249 -9.135,-10.856 -10.004,-17.721c0.735,-3.197 0.946,-6.025 3.242,-8.545z" transform="scale(0.666667 0.666667)" fill="#FEFEFD"/>
  <path id="svg_59" d="m326.224,564.396c0.552,0.649 0.61,0.51 0.638,1.426c0.133,4.291 1.329,7.679 3.28,11.472c2.907,5.652 9.765,11.457 15.796,13.346c1.953,0.612 3.935,0.353 5.228,2.17c-0.882,0.453 -1.786,0.798 -2.765,0.985c-3.905,0.743 -8.828,-1.515 -11.997,-3.714c-6.736,-4.675 -11.759,-11.541 -13.228,-19.652c0.581,-2.294 1.699,-4.11 3.048,-6.033z" transform="scale(0.666667 0.666667)" fill="#FEFEFD"/>
  <path id="svg_60" d="m309.798,567.501l6.372,-3.138c2.965,-1.261 6.644,-2.517 9.799,-1.22l0.255,1.253c-1.349,1.923 -2.467,3.739 -3.048,6.033l-0.514,0.232c-0.559,0.259 -1.002,0.574 -1.505,0.926c-4.223,2.956 -11.03,2.288 -15.875,1.414c-2.144,-0.387 -4.164,-1.116 -6.179,-1.932c1.142,-1.068 1.357,-1.639 2.959,-1.69c2.94,-0.095 5.071,-0.717 7.736,-1.878z" transform="scale(0.666667 0.666667)" fill="#FE9896"/>
  <path id="svg_61" d="m261.073,546.79c1.377,-1.541 4.841,-1.758 6.794,-2.619c4.805,-2.118 8.921,-5.661 13.54,-8.109c0.694,0.461 0.851,0.768 1.086,1.568c0.429,1.466 0.638,4.519 -0.164,5.837c-1.093,1.33 -2.147,2.595 -2.259,4.377l-0.877,-0.283l-0.366,0.258c-4.521,3.089 -11.54,3.269 -16.776,2.233c-0.97,-0.191 -1.913,-0.385 -2.832,-0.763c0.895,-0.533 1.344,-1.62 1.854,-2.499z" transform="scale(0.666667 0.666667)" fill="#FE998D"/>
  <path id="svg_62" d="m242.345,518.9c1.296,-0.084 1.245,-0.171 2.224,0.662c0.852,3.578 -0.35,7.636 0.989,11.063l0.21,0.545c2.01,5.018 7.099,9.783 11.588,12.68c0.749,0.484 2.991,1.409 3.449,1.996c0.201,0.258 0.179,0.629 0.268,0.944c-0.51,0.879 -0.959,1.966 -1.854,2.499c-3.008,-1.19 -5.811,-2.519 -8.453,-4.405c-4.972,-3.55 -9.87,-9.447 -10.856,-15.638c-0.072,-4.042 0.669,-6.748 2.435,-10.346z" transform="scale(0.666667 0.666667)" fill="#FEFEFD"/>
  <path id="svg_63" d="m177.415,503.435c1.678,-1.603 22.082,-8.589 24.523,-8.755l0.224,0.695l-0.664,0.347c-2.296,2.52 -2.507,5.348 -3.242,8.545l-0.437,0.124c-0.566,0.189 -0.948,0.4 -1.457,0.682c-5.678,3.145 -13.46,3.833 -19.635,2.037c-1.541,-0.449 -2.928,-1.086 -4.348,-1.828l1.982,-0.48c1.434,-0.083 1.884,-0.572 3.054,-1.367z" transform="scale(0.666667 0.666667)" fill="#FE9896"/>
  <path id="svg_64" d="m282.329,543.467l0.322,0.29c0.777,0.891 1.031,2.363 1.456,3.465c0.973,2.529 2.521,5.306 4.589,7.107c4.689,4.087 10.858,7.118 16.303,10.109c0.879,0.483 3.794,1.56 4.364,2.208c0.212,0.24 0.29,0.57 0.435,0.855c-2.665,1.161 -4.796,1.783 -7.736,1.878c-1.602,0.051 -1.817,0.622 -2.959,1.69c-2.729,-1.272 -5.21,-2.579 -7.606,-4.412c-5.913,-4.525 -10.442,-11.317 -11.427,-18.813c0.112,-1.782 1.166,-3.047 2.259,-4.377z" transform="scale(0.666667 0.666667)" fill="url(#gradient_1)"/>
  <path id="svg_65" d="m119.636,360.046l-0.118,-0.271c-0.273,-1.152 0.038,-2.962 0.072,-4.156c0.08,-2.793 0.057,-5.591 0.064,-8.385c0.04,-14.415 0.041,-28.831 -0.034,-43.247c-0.016,-3.128 -0.93,-16.859 -0.064,-18.836c11.949,6.566 24.307,12.469 36.114,19.284c31.66,18.274 62.478,38.024 94.192,56.188c23.677,13.561 47.385,27.108 70.731,41.235c9.474,5.733 19.964,11.007 28.518,18.065c6.339,5.23 10.334,11.457 12.601,19.336c2.358,8.194 1.921,17.327 1.981,25.782c0.06,8.567 0.093,17.138 0.003,25.705l-0.134,53.912c1.044,4.679 0.361,10.392 0.628,15.251c-0.693,-0.154 -0.485,-0.022 -0.989,-0.423c-5.464,-4.343 -11.986,-7.868 -17.892,-11.635c-9.422,-6.009 -18.791,-12.279 -28.353,-18.043c-4.584,-2.763 -9.357,-5.175 -13.972,-7.877c-4.674,-2.736 -9.101,-5.914 -13.74,-8.718c-8.691,-5.254 -17.621,-10.094 -26.351,-15.277c-6.474,-3.843 -12.733,-8.074 -19.216,-11.883c-11.4,-6.699 -23.385,-12.338 -34.802,-19.02c-12.259,-7.176 -24.135,-15.049 -36.386,-22.233c-10.373,-6.083 -20.992,-11.509 -31.489,-17.332c-6.437,-3.571 -12.873,-8.218 -19.902,-10.505l-1.043,-0.713c-0.222,-3.696 -0.263,-7.42 -0.341,-11.122c-0.03,-1.408 -0.313,-2.935 0.389,-4.204l-0.815,-0.986c0.452,-3.847 0.323,-7.735 0.318,-11.602c-0.012,-9.343 -0.575,-18.979 0.03,-28.29z" transform="scale(0.666667 0.666667)" fill="#FE998D"/>
  <path id="svg_66" d="m119.636,360.046l243.699,145.45c0.047,-4.744 -0.376,-10.094 0.361,-14.75l-0.134,53.912c1.044,4.679 0.361,10.392 0.628,15.251c-0.693,-0.154 -0.485,-0.022 -0.989,-0.423c-5.464,-4.343 -11.986,-7.868 -17.892,-11.635c-9.422,-6.009 -18.791,-12.279 -28.353,-18.043c-4.584,-2.763 -9.357,-5.175 -13.972,-7.877c-4.674,-2.736 -9.101,-5.914 -13.74,-8.718c-8.691,-5.254 -17.621,-10.094 -26.351,-15.277c-6.474,-3.843 -12.733,-8.074 -19.216,-11.883c-11.4,-6.699 -23.385,-12.338 -34.802,-19.02c-12.259,-7.176 -24.135,-15.049 -36.386,-22.233c-10.373,-6.083 -20.992,-11.509 -31.489,-17.332c-6.437,-3.571 -12.873,-8.218 -19.902,-10.505l-1.043,-0.713c-0.222,-3.696 -0.263,-7.42 -0.341,-11.122c-0.03,-1.408 -0.313,-2.935 0.389,-4.204l-0.815,-0.986c0.452,-3.847 0.323,-7.735 0.318,-11.602c-0.012,-9.343 -0.575,-18.979 0.03,-28.29z" transform="scale(0.666667 0.666667)" fill="#FDE2D3"/>
  <path id="svg_67" d="m120.103,400.924l243.459,143.734c1.044,4.679 0.361,10.392 0.628,15.251c-0.693,-0.154 -0.485,-0.022 -0.989,-0.423c-5.464,-4.343 -11.986,-7.868 -17.892,-11.635c-9.422,-6.009 -18.791,-12.279 -28.353,-18.043c-4.584,-2.763 -9.357,-5.175 -13.972,-7.877c-4.674,-2.736 -9.101,-5.914 -13.74,-8.718c-8.691,-5.254 -17.621,-10.094 -26.351,-15.277c-6.474,-3.843 -12.733,-8.074 -19.216,-11.883c-11.4,-6.699 -23.385,-12.338 -34.802,-19.02c-12.259,-7.176 -24.135,-15.049 -36.386,-22.233c-10.373,-6.083 -20.992,-11.509 -31.489,-17.332c-6.437,-3.571 -12.873,-8.218 -19.902,-10.505l-1.043,-0.713c-0.222,-3.696 -0.263,-7.42 -0.341,-11.122c-0.03,-1.408 -0.313,-2.935 0.389,-4.204z" transform="scale(0.666667 0.666667)" fill="#FE998D"/>
  <path id="svg_68" d="m321.828,521.062c0.98,0.001 1.112,0.232 1.919,0.818c0.571,1.3 0.627,1.447 0.388,2.932c-0.527,0.143 -0.997,0.09 -1.538,0.074c-0.469,-0.519 -0.942,-0.966 -1.155,-1.648c-0.343,-1.099 -0.135,-1.219 0.386,-2.176z" transform="scale(0.666667 0.666667)" fill="#FEFEFD"/>
  <path id="svg_69" d="m302.306,509.812l0.549,0.071l-0.275,8.555l-0.705,0.512l-0.937,-0.571c-0.876,-0.767 -1.632,-1.762 -1.693,-2.973c-0.123,-2.446 1.542,-3.924 3.061,-5.594z" transform="scale(0.666667 0.666667)" fill="#FEFEFD"/>
  <path id="svg_70" d="m502.902,117.294c1.091,1.545 1.285,3.298 1.62,5.122c1.226,6.67 0.526,12.697 -0.12,19.345c-2.615,12.289 -7.89,25.409 -17.623,33.794c3.493,3.121 6.863,6.213 9.882,9.813c0.499,0.595 1.757,1.831 1.886,2.542c15.839,18.394 24.982,41.508 29.355,65.196c0.345,2.347 0.741,5.047 1.597,7.25c0.237,3.922 0.648,7.974 0.328,11.894c-0.697,8.543 -4.544,16.249 -10.152,22.631c-12.325,14.026 -32.724,19.296 -50.693,20.393c-8.337,0.509 -16.723,-0.332 -24.846,-2.222l-0.064,0.313c-0.719,2.061 -1.354,5.265 -2.569,7.016c-5.645,17.297 -22.807,33.151 -37.963,42.583c-6.911,3.597 -13.431,6.248 -21.192,7.427c-9.167,0.936 -18.117,0.704 -27.164,-1.181c-14.274,-2.974 -28.363,-8.575 -36.651,-21.201c-0.819,-0.717 -1.18,-1.793 -1.653,-2.763c0.016,-0.216 -0.065,-0.429 -0.124,-0.637c-0.503,-1.757 -2.968,-2.832 -4.472,-3.631c-3.163,-2.668 -5.288,-7.22 -6.525,-11.116c-0.384,-1.211 -0.443,-2.441 -0.943,-3.62l-0.301,-0.688c-0.217,-0.555 -0.143,-1.502 -0.19,-2.116c-0.173,-2.272 -0.458,-4.518 -0.425,-6.802c0.251,-16.87 8.61,-31.593 20.611,-43.125c1.315,-0.289 5.105,-3.957 6.434,-4.846c6.106,-4.086 12.38,-7.913 19.229,-10.63c4.142,-1.57 8.769,-2.269 13.111,-3.014c-6.199,-12.309 -12.881,-24.414 -19.254,-36.639c-2.518,-4.829 -4.859,-9.782 -7.527,-14.531c-0.461,-0.821 -1.176,-2.63 -1.816,-3.233c-0.269,-0.253 -1.159,-0.513 -1.531,-0.678c18.532,-0.005 36.628,-6.357 53.281,-13.964c6.844,-3.127 13.855,-6.508 19.683,-11.332c2.834,-1.871 5.203,-4.491 7.879,-6.596c1.341,0.019 1.67,0.673 2.644,1.552c1.62,0.093 11.068,-5.169 13.389,-6.228c1.169,-0.431 2.102,-0.508 3.089,-1.375l0.022,0.573c0.244,0.183 0.442,0.452 0.731,0.549c1.089,0.365 5.104,-1.501 6.301,-1.939c4.242,-1.552 8.86,-3.545 13.439,-3.599c5.211,-0.685 11.037,0.95 16.01,-0.451l16.261,-13.374c2.003,0.093 4.356,-0.127 6.037,1.111c4.71,-8.184 9.933,-18.078 10.979,-27.573z" transform="scale(0.666667 0.666667)" fill="#FE9896"/>
  <path id="svg_71" d="m423.753,318.938l0.675,0.07l0.322,0.777c0.392,1.487 0.312,4.033 -0.438,5.338l-0.868,0.189c0.021,-2.133 -0.023,-4.262 0.309,-6.374z" transform="scale(0.666667 0.666667)" fill="#FE998D"/>
  <path id="svg_72" d="m435.638,275.437l0.543,0.044l0.278,0.331c-2.577,3.218 -5.776,6.715 -9.521,8.552l-0.711,-0.498c-0.346,-2.368 -0.335,-3.903 0.711,-6.085c1.754,-1.834 6.182,-1.754 8.7,-2.344z" transform="scale(0.666667 0.666667)" fill="#FEFEFD"/>
  <path id="svg_73" d="m485.886,143.756c2.003,0.093 4.356,-0.127 6.037,1.111c-3.296,5.956 -7.888,10.743 -12.561,15.628c-1.564,1.634 -3.214,3.75 -5.213,4.809l-0.823,0.032c0.169,-0.837 0.011,-0.614 0.493,-1.196c1.208,-1.461 3.061,-3.15 3.096,-5.097c-1.188,-1.053 -2.893,-1.087 -4.411,-1.33l-2.879,-0.583l16.261,-13.374z" transform="scale(0.666667 0.666667)" fill="#FDD0C3"/>
  <path id="svg_74" d="m388.024,260.234l0.72,0.255l0.173,0.525c-3.783,2.272 -7.263,5.386 -10.761,8.093c6.923,3.26 15.028,7.88 22.906,6.548l0.293,0.347c-1.857,1.293 -4.554,1.693 -6.749,1.31l-4.461,-0.88l-0.094,0.117c4.854,3.41 8.821,7.196 13.121,11.265c8.683,8.218 16.089,16.589 23.226,26.211c2.108,2.843 5.688,6.996 6.271,10.567l0.508,4.061c-3.475,-3.477 -5.262,-7.711 -8.135,-11.604c-3.497,-4.736 -6.848,-9.555 -10.678,-14.034c-4.068,-4.757 -8.6,-9.165 -13.147,-13.458c-5.303,-5.005 -11.567,-10.012 -18.31,-12.931l-3.124,-1.215c-1.702,-0.871 -3.009,-1.836 -4.456,-3.063l-0.183,-0.394c-0.272,-0.928 -0.212,-1.197 0.187,-2.012c0.791,-0.42 1.294,-0.646 1.855,-1.358c2.561,-3.249 7.422,-5.942 10.838,-8.35z" transform="scale(0.666667 0.666667)" fill="#FE6D63"/>
  <path id="svg_75" d="m483.62,179.877l0.017,-0.91l0.488,0.471c0.532,-0.509 0.214,-0.296 0.984,-0.596c3.048,4.241 6.546,8.182 9.076,12.783c3.905,7.104 4.485,14.819 3.142,22.687c-2.495,14.617 -13.71,28.623 -25.636,36.852c-13.075,9.022 -30.465,14.696 -46.455,12.533l5.264,0.112c0.585,-0.486 0.391,-0.417 0.97,-0.635l0.339,-0.112l-0.371,-0.371c-1.678,0.285 -4.939,0.565 -6.54,0.073l-0.315,-0.132c8.244,0.091 15.744,-1.416 23.579,-3.827c11.071,-3.407 20.076,-7.646 28.896,-15.373c7.001,-6.135 12.383,-13.542 15.984,-22.135c1.458,-3.479 2.791,-7.314 2.989,-11.109c0.126,-2.415 0.233,-5.099 -0.131,-7.487c-1.268,-8.338 -6.848,-16.664 -12.28,-22.824z" transform="scale(0.666667 0.666667)" fill="#F65B67"/>
  <path id="svg_76" d="m328.79,353.509l0.079,0.054c4.31,1.956 9.005,3.038 13.615,4.024c6.77,1.448 13.96,2.437 20.891,2.373c11.179,-0.102 22.847,-2.751 33.426,-6.3c13.062,-4.381 24.085,-11.634 34.1,-21.018c4.193,-3.928 7.643,-7.17 10.24,-12.392l0.362,0.131c-5.645,17.297 -22.807,33.151 -37.963,42.583c-6.911,3.597 -13.431,6.248 -21.192,7.427c-9.167,0.936 -18.117,0.704 -27.164,-1.181c-14.274,-2.974 -28.363,-8.575 -36.651,-21.201l0.773,-0.286c3.022,2.215 6.104,4.161 9.484,5.786z" transform="scale(0.666667 0.666667)" fill="url(#gradient_2)"/>
  <path id="svg_77" d="m370.187,269.756c1.322,1.551 2.667,2.292 4.438,3.2c0.633,-0.349 0.43,-0.115 0.702,-0.608c1.447,1.227 2.754,2.192 4.456,3.063l3.124,1.215c-2.902,4.157 -6.189,7.969 -9.184,12.049c-4.776,6.507 -9.333,13.143 -14.219,19.575c-7.327,9.644 -14.965,19.055 -21.818,29.048c-3.172,4.625 -6.73,9.372 -8.224,14.854c-0.143,0.526 -0.362,0.915 -0.672,1.357c-3.38,-1.625 -6.462,-3.571 -9.484,-5.786l-0.773,0.286c-0.819,-0.717 -1.18,-1.793 -1.653,-2.763l0.143,-0.653l0.429,-1.687l0.364,-1.094c0.347,-1.266 0.666,-2.511 1.125,-3.75c0.318,-0.857 0.536,-1.83 0.936,-2.634l0.185,-0.362c0.432,-1.074 0.898,-2.12 1.336,-3.189c2.721,-6.643 7.084,-12.589 11.495,-18.202c5.44,-6.92 11.252,-13.529 16.968,-20.218c6.131,-7.173 11.996,-14.457 18.575,-21.24l1.751,-2.461z" transform="scale(0.666667 0.666667)" fill="url(#gradient_3)"/>
  <path id="svg_78" d="m370.187,269.756c1.322,1.551 2.667,2.292 4.438,3.2c0.633,-0.349 0.43,-0.115 0.702,-0.608c1.447,1.227 2.754,2.192 4.456,3.063c-1.622,1.16 -3.155,2.028 -5.225,1.688c-2.184,-0.36 -4.863,-3.167 -6.122,-4.882l1.751,-2.461z" transform="scale(0.666667 0.666667)" fill="#FE8487"/>
  <path id="svg_79" d="m375.352,253.064l1.216,1.374l-0.57,0.75c0.47,1.279 1.114,2.311 0.583,3.626l-0.784,0.558l-1.172,-1.657c-1.055,0.861 -1.417,3.325 -1.732,4.68c-0.631,2.715 -1.136,5.004 -2.706,7.361l-1.751,2.461c-6.579,6.783 -12.444,14.067 -18.575,21.24c-5.716,6.689 -11.528,13.298 -16.968,20.218c-4.411,5.613 -8.774,11.559 -11.495,18.202c-0.438,1.069 -0.904,2.115 -1.336,3.189l-0.185,0.362c-0.4,0.804 -0.618,1.777 -0.936,2.634c-0.459,1.239 -0.778,2.484 -1.125,3.75l-0.364,1.094l-0.429,1.687l-0.143,0.653c0.016,-0.216 -0.065,-0.429 -0.124,-0.637c-0.503,-1.757 -2.968,-2.832 -4.472,-3.631c-3.163,-2.668 -5.288,-7.22 -6.525,-11.116c-0.384,-1.211 -0.443,-2.441 -0.943,-3.62l-0.301,-0.688c-0.217,-0.555 -0.143,-1.502 -0.19,-2.116c-0.173,-2.272 -0.458,-4.518 -0.425,-6.802c0.251,-16.87 8.61,-31.593 20.611,-43.125c1.315,-0.289 5.105,-3.957 6.434,-4.846c6.106,-4.086 12.38,-7.913 19.229,-10.63c4.142,-1.57 8.769,-2.269 13.111,-3.014l11.527,-0.876l0.54,-1.081z" transform="scale(0.666667 0.666667)" fill="#FEAEAE"/>
  <path id="svg_80" d="m354.104,271.312c0.676,-0.102 0.961,-0.088 1.584,0.198l0.287,0.928c-0.721,1.427 -2.58,2.142 -3.965,2.88c-3.176,1.692 -6.348,3.431 -9.448,5.26c-2.816,1.663 -5.588,3.437 -8.234,5.36c-7.813,5.675 -13.89,12.062 -20.266,19.204c-0.773,0.407 -0.556,0.462 -1.5,0.225c-0.41,-1.54 0.222,-2.666 0.99,-4.002c1.823,-3.169 4.329,-5.9 6.806,-8.563c8.443,-9.077 21.577,-18.264 33.746,-21.49z" transform="scale(0.666667 0.666667)" fill="#FEFEFD"/>
  <path id="svg_81" d="m498.547,187.91c15.839,18.394 24.982,41.508 29.355,65.196c0.345,2.347 0.741,5.047 1.597,7.25c0.237,3.922 0.648,7.974 0.328,11.894c-0.697,8.543 -4.544,16.249 -10.152,22.631c-12.325,14.026 -32.724,19.296 -50.693,20.393c-8.337,0.509 -16.723,-0.332 -24.846,-2.222c-0.522,-1.865 0.806,-5.723 1.21,-7.729c9.071,-1.662 17.876,-3.558 26.143,-7.834c17.148,-8.869 33.038,-24.156 38.908,-43.031c5.517,-17.746 3.18,-35.765 -4.809,-52.333c-2.222,-4.609 -5.061,-8.807 -7.428,-13.322l0.387,-0.893z" transform="scale(0.666667 0.666667)" fill="#D93B47"/>
  <path id="svg_82" d="m469.625,157.13l2.879,0.583c1.518,0.243 3.223,0.277 4.411,1.33c-0.035,1.947 -1.888,3.636 -3.096,5.097c-0.482,0.582 -0.324,0.359 -0.493,1.196c3.103,4.017 8.073,7.152 10.678,11.319c0.301,0.481 1.05,1.641 1.105,2.187c-0.77,0.3 -0.452,0.087 -0.984,0.596l-0.488,-0.471l-0.017,0.91c5.432,6.16 11.012,14.486 12.28,22.824c0.364,2.388 0.257,5.072 0.131,7.487c-0.198,3.795 -1.531,7.63 -2.989,11.109c-3.601,8.593 -8.983,16 -15.984,22.135c-8.82,7.727 -17.825,11.966 -28.896,15.373c-7.835,2.411 -15.335,3.918 -23.579,3.827l0.315,0.132c1.601,0.492 4.862,0.212 6.54,-0.073l0.371,0.371l-0.339,0.112c-0.579,0.218 -0.385,0.149 -0.97,0.635l-5.264,-0.112c-2.949,0.013 -5.974,-0.572 -8.921,-0.849c-2.163,0.349 -8.513,0.435 -10.378,-0.525l0.171,-0.841c-5.416,0.71 -11.231,1.207 -16.658,0.335l-0.533,-0.803l-0.173,-0.525l-0.72,-0.255c-3.416,2.408 -8.277,5.101 -10.838,8.35c-0.561,0.712 -1.064,0.938 -1.855,1.358c-0.399,0.815 -0.459,1.084 -0.187,2.012l0.183,0.394c-0.272,0.493 -0.069,0.259 -0.702,0.608c-1.771,-0.908 -3.116,-1.649 -4.438,-3.2c1.57,-2.357 2.075,-4.646 2.706,-7.361c0.315,-1.355 0.677,-3.819 1.732,-4.68l1.172,1.657l0.784,-0.558c0.531,-1.315 -0.113,-2.347 -0.583,-3.626l0.57,-0.75l-1.216,-1.374l-0.54,1.081l-11.527,0.876c-6.199,-12.309 -12.881,-24.414 -19.254,-36.639c-2.518,-4.829 -4.859,-9.782 -7.527,-14.531c-0.461,-0.821 -1.176,-2.63 -1.816,-3.233c-0.269,-0.253 -1.159,-0.513 -1.531,-0.678c18.532,-0.005 36.628,-6.357 53.281,-13.964c6.844,-3.127 13.855,-6.508 19.683,-11.332c2.834,-1.871 5.203,-4.491 7.879,-6.596c1.341,0.019 1.67,0.673 2.644,1.552c1.62,0.093 11.068,-5.169 13.389,-6.228c1.169,-0.431 2.102,-0.508 3.089,-1.375l0.022,0.573c0.244,0.183 0.442,0.452 0.731,0.549c1.089,0.365 5.104,-1.501 6.301,-1.939c4.242,-1.552 8.86,-3.545 13.439,-3.599c5.211,-0.685 11.037,0.95 16.01,-0.451z" transform="scale(0.666667 0.666667)" fill="#FE998D"/>
  <path id="svg_83" d="m472.504,157.713c1.518,0.243 3.223,0.277 4.411,1.33c-0.035,1.947 -1.888,3.636 -3.096,5.097c-0.482,0.582 -0.324,0.359 -0.493,1.196c3.103,4.017 8.073,7.152 10.678,11.319c0.301,0.481 1.05,1.641 1.105,2.187c-0.77,0.3 -0.452,0.087 -0.984,0.596l-0.488,-0.471l-0.017,0.91c-1.94,-1.453 -3.685,-3.516 -5.452,-5.201c-2.843,-2.711 -6.028,-5.282 -8.241,-8.551l0.574,-1.191c-0.137,-1.861 -0.657,-5.334 0.28,-6.872l1.723,-0.349z" transform="scale(0.666667 0.666667)" fill="#FE8487"/>
  <path id="svg_84" d="m396.556,252.739l0.282,-0.135c3.147,-1.587 6.06,-4.885 8.619,-7.316c9.204,-8.741 16.724,-18.849 24.015,-29.195c4.174,-5.921 8.449,-11.715 12.326,-17.847c4.063,-6.427 8.037,-12.935 12.356,-19.194c2.092,-3.031 4.001,-5.992 6.499,-8.712c-1.707,4.741 -4.306,9.308 -6.606,13.804c-5.79,11.322 -12.192,21.945 -19.314,32.48c-7.213,10.672 -15.473,21.414 -25.044,30.075c-1.826,1.652 -3.967,4.057 -6.182,5.107c-3.555,1.684 -6.962,4.121 -10.224,6.324c-1.369,0.924 -2.881,2.186 -4.366,2.884l-0.173,-0.525l-0.72,-0.255c1.141,-1.073 2.869,-2.283 3.65,-3.629c0.579,-0.996 -0.178,0.07 0.663,-1.067l0.349,-0.457c1.517,-0.574 2.606,-1.336 3.87,-2.342z" transform="scale(0.666667 0.666667)" fill="#FE8487"/>
  <path id="svg_85" d="m406.108,261.482c2.04,-0.36 4.256,-0.879 6.204,-1.586c7.354,-2.672 15.638,-7.271 21.563,-12.368c14.794,-12.73 23.681,-34.319 27.761,-52.995c2.058,-9.422 2.31,-18.966 6.49,-27.769c0.106,6.548 -0.331,12.738 -1.311,19.212c-3.739,24.701 -14.358,52.735 -35.099,68.085l-0.232,0.204c-1.394,1.208 -9.858,6.919 -10.256,7.86c0.997,0.59 2.228,0.471 3.355,0.507l0.315,0.132c1.601,0.492 4.862,0.212 6.54,-0.073l0.371,0.371l-0.339,0.112c-0.579,0.218 -0.385,0.149 -0.97,0.635l-5.264,-0.112c-2.949,0.013 -5.974,-0.572 -8.921,-0.849c-2.163,0.349 -8.513,0.435 -10.378,-0.525l0.171,-0.841z" transform="scale(0.666667 0.666667)" fill="#F65B67"/>
  <path id="svg_86" d="m416.315,262.848l0.134,-0.397c5.198,-2.354 9.308,-6.218 14.051,-9.282l0.375,0.143l-0.656,0.657l0.469,0.281l0.928,-0.916l0.1,0.727l-0.232,0.204c-1.394,1.208 -9.858,6.919 -10.256,7.86c0.997,0.59 2.228,0.471 3.355,0.507l0.315,0.132c1.601,0.492 4.862,0.212 6.54,-0.073l0.371,0.371l-0.339,0.112c-0.579,0.218 -0.385,0.149 -0.97,0.635l-5.264,-0.112c-2.949,0.013 -5.974,-0.572 -8.921,-0.849z" transform="scale(0.666667 0.666667)" fill="#FE6D63"/>
  <path id="svg_87" d="m433.122,161.997l0.022,0.573c0.244,0.183 0.442,0.452 0.731,0.549c1.089,0.365 5.104,-1.501 6.301,-1.939c4.242,-1.552 8.86,-3.545 13.439,-3.599l0.604,0.239c1.943,0.704 6.705,0.449 8.812,0.149c-0.807,0.484 -1.875,0.337 -2.812,0.375l7.716,0.631c-2.613,1.635 -5.634,3.596 -8.484,4.731c-11.945,9.219 -25.136,16.918 -36.486,26.866c-15.221,13.34 -22.801,31.645 -25.348,51.366l-1.061,10.801c-1.264,1.006 -2.353,1.768 -3.87,2.342l-0.349,0.457c-0.841,1.137 -0.084,0.071 -0.663,1.067c-0.781,1.346 -2.509,2.556 -3.65,3.629c-3.416,2.408 -8.277,5.101 -10.838,8.35c-0.561,0.712 -1.064,0.938 -1.855,1.358c-0.399,0.815 -0.459,1.084 -0.187,2.012l0.183,0.394c-0.272,0.493 -0.069,0.259 -0.702,0.608c-1.771,-0.908 -3.116,-1.649 -4.438,-3.2c1.57,-2.357 2.075,-4.646 2.706,-7.361c0.315,-1.355 0.677,-3.819 1.732,-4.68l1.172,1.657l0.784,-0.558c0.531,-1.315 -0.113,-2.347 -0.583,-3.626l0.57,-0.75l-1.216,-1.374l-0.54,1.081l-11.527,0.876c-6.199,-12.309 -12.881,-24.414 -19.254,-36.639c-2.518,-4.829 -4.859,-9.782 -7.527,-14.531c-0.461,-0.821 -1.176,-2.63 -1.816,-3.233c-0.269,-0.253 -1.159,-0.513 -1.531,-0.678c18.532,-0.005 36.628,-6.357 53.281,-13.964c6.844,-3.127 13.855,-6.508 19.683,-11.332c2.834,-1.871 5.203,-4.491 7.879,-6.596c1.341,0.019 1.67,0.673 2.644,1.552c1.62,0.093 11.068,-5.169 13.389,-6.228c1.169,-0.431 2.102,-0.508 3.089,-1.375z" transform="scale(0.666667 0.666667)" fill="url(#gradient_4)"/>
  <path id="svg_88" d="m392.686,255.081c-0.516,-0.342 -0.561,-0.483 -0.829,-1.019c-0.06,-13.901 3.397,-29.588 9.424,-42.129c2.639,-5.492 5.716,-10.805 9.443,-15.635c3.835,-4.969 8.681,-9.323 13.503,-13.303c9.339,-7.708 19.535,-14.356 30.983,-18.468c1.538,-0.552 2.593,-0.935 4.241,-0.821c-11.945,9.219 -25.136,16.918 -36.486,26.866c-15.221,13.34 -22.801,31.645 -25.348,51.366l-1.061,10.801c-1.264,1.006 -2.353,1.768 -3.87,2.342z" transform="scale(0.666667 0.666667)" fill="#FEFEFD"/>
  <path id="svg_89" d="m406.121,174.644c2.834,-1.871 5.203,-4.491 7.879,-6.596c1.341,0.019 1.67,0.673 2.644,1.552c-5.123,4.087 -10.073,8.23 -14.434,13.146c-16.21,18.273 -23.874,42.259 -26.541,66.152c-0.153,1.373 -0.365,2.785 -0.317,4.166l-0.54,1.081l-11.527,0.876c-6.199,-12.309 -12.881,-24.414 -19.254,-36.639c-2.518,-4.829 -4.859,-9.782 -7.527,-14.531c-0.461,-0.821 -1.176,-2.63 -1.816,-3.233c-0.269,-0.253 -1.159,-0.513 -1.531,-0.678c18.532,-0.005 36.628,-6.357 53.281,-13.964c6.844,-3.127 13.855,-6.508 19.683,-11.332z" transform="scale(0.666667 0.666667)" fill="#FC423E"/>
  <path id="svg_90" d="m210.133,175.843c2.876,-0.329 6.687,-2.196 9.449,-3.216c9.285,-3.429 18.611,-8.544 25.725,-15.53c2.602,-2.556 4.92,-5.724 7.001,-8.717c1.356,-1.95 3.955,-7.414 5.88,-8.096l0.935,1.043l0.468,-0.451c0.703,0.671 1.397,1.559 2.388,1.742c2.799,0.844 14.508,18.545 16.661,22.005l1.116,1.727c0.335,0.502 0.538,0.709 1.035,1.016c1.261,0.413 1.714,1.705 2.426,2.792c1.957,2.989 3.921,6.067 5.494,9.28c0.803,1.64 1.34,3.221 1.195,5.066c4.585,1.181 6.786,2.396 10.138,5.72c0.659,-0.189 1.019,-0.285 1.713,-0.153l0.493,0.123c0.664,-0.277 0.95,-1.362 1.5,-2.053l0.544,0.33c0.644,3.089 1.341,4.482 4.113,6.196c1.925,1.19 4.156,1.777 6.295,2.457c5.875,1.869 12.331,2.377 18.455,2.816c0.372,0.165 1.262,0.425 1.531,0.678c0.64,0.603 1.355,2.412 1.816,3.233c2.668,4.749 5.009,9.702 7.527,14.531c6.373,12.225 13.055,24.33 19.254,36.639c-4.342,0.745 -8.969,1.444 -13.111,3.014c-6.849,2.717 -13.123,6.544 -19.229,10.63c-1.329,0.889 -5.119,4.557 -6.434,4.846c-12.001,11.532 -20.36,26.255 -20.611,43.125c-0.033,2.284 0.252,4.53 0.425,6.802c0.047,0.614 -0.027,1.561 0.19,2.116l0.301,0.688c0.5,1.179 0.559,2.409 0.943,3.62c1.237,3.896 3.362,8.448 6.525,11.116c1.504,0.799 3.969,1.874 4.472,3.631c0.059,0.208 0.14,0.421 0.124,0.637c0.473,0.97 0.834,2.046 1.653,2.763c8.288,12.626 22.377,18.227 36.651,21.201c9.047,1.885 17.997,2.117 27.164,1.181l0.519,21.21c1.303,10.458 0.92,21.236 1.097,31.774c0.319,18.988 0.566,37.962 0.684,56.954c0.185,29.635 -0.22,59.255 -0.215,88.887c0.002,10.83 -0.018,21.663 0.053,32.493c0.044,6.736 0.322,13.497 0.064,20.229c-0.594,0.624 -0.756,0.628 -1.605,0.838c-4.109,-0.775 -7.52,-2.008 -10.739,-4.745c-4.032,-3.428 -6.859,-8.048 -7.646,-13.324c-0.557,-3.728 -0.188,-7.602 -0.515,-11.364l-0.042,-0.441c0.716,-6.69 0.437,-13.574 0.443,-20.298c0.004,-4.117 0.364,-8.634 -0.256,-12.695c-0.267,-4.859 0.416,-10.572 -0.628,-15.251l0.134,-53.912c0.09,-8.567 0.057,-17.138 -0.003,-25.705c-0.06,-8.455 0.377,-17.588 -1.981,-25.782c-2.267,-7.879 -6.262,-14.106 -12.601,-19.336c-8.554,-7.058 -19.044,-12.332 -28.518,-18.065c-23.346,-14.127 -47.054,-27.674 -70.731,-41.235c-31.714,-18.164 -62.532,-37.914 -94.192,-56.188c-11.807,-6.815 -24.165,-12.718 -36.114,-19.284c-0.938,-0.493 -1.935,-0.583 -2.884,-1.089l-0.528,-38.405c6.869,-3.958 13.889,-7.669 20.731,-11.665c2.032,-1.187 5.16,-4.206 7.284,-4.542c-0.937,-10.83 -2.058,-22.715 2.572,-32.975c2.068,-1.115 3.744,-3.53 5.281,-5.289c3.144,-3.596 6.32,-7.624 10.025,-10.642l1.027,0.615c0.994,0.658 1.734,0.572 2.868,0.529l0.171,0.15c6.846,0.606 13.923,0.864 20.744,-0.167c2.495,-0.378 5.105,-0.828 7.531,-1.51c3.223,-0.905 7.713,-2.716 11.01,-2.302c1.476,-0.98 2.648,-2.073 4.442,-1.738l0.303,-0.278z" transform="scale(0.666667 0.666667)" fill="#FEFEFD"/>
  <path id="svg_91" d="m263.654,330.372c9.464,0.378 18.75,-0.165 28.097,-1.73c4.319,-0.723 8.667,-1.502 12.764,-3.088l0.301,0.688c0.5,1.179 0.559,2.409 0.943,3.62c1.237,3.896 3.362,8.448 6.525,11.116c-1.107,0.871 -2.345,1.638 -3.601,2.274c-4.134,2.091 -8.828,2.79 -13.371,3.353c-9.661,1.196 -20.009,1.318 -29.345,-1.8c-3.365,-1.123 -9.506,-3.607 -10.779,-7.222c-1.107,-3.139 7.224,-4.811 8.466,-7.211z" transform="scale(0.666667 0.666667)" fill="#FDE2D3"/>
  <path id="svg_92" d="m313.447,283.445c2.096,-2.268 8.138,-9.576 11.064,-9.934c-12.001,11.532 -20.36,26.255 -20.611,43.125c-0.033,2.284 0.252,4.53 0.425,6.802c0.047,0.614 -0.027,1.561 0.19,2.116c-4.097,1.586 -8.445,2.365 -12.764,3.088c-9.347,1.565 -18.633,2.108 -28.097,1.73c-3.636,-0.537 -7.059,-1.241 -10.552,-2.388c-13.009,-4.27 -25.55,-17.451 -31.606,-29.394c1.696,0.43 3.182,1.622 4.752,2.391c3.976,1.948 7.791,3.227 12.156,4.006c8.204,2.287 16.975,3.227 25.48,2.607c13.76,-1.004 28.684,-5.875 39.678,-14.354c3.777,-2.912 6.781,-6.204 9.885,-9.795z" transform="scale(0.666667 0.666667)" fill="#D93B47"/>
  <path id="svg_93" d="m294.78,255.061c2.207,1.58 3.415,4.626 4.764,6.949c2.614,4.502 5.344,8.924 8.083,13.351c1.801,2.911 3.186,5.813 5.82,8.084c-3.104,3.591 -6.108,6.883 -9.885,9.795c-10.994,8.479 -25.918,13.35 -39.678,14.354c-8.505,0.62 -17.276,-0.32 -25.48,-2.607l0.382,-0.106c0.998,-0.085 1.395,-0.264 2.144,-0.943c4.948,-4.486 9.413,-9.573 14.416,-14.066c13.057,-11.724 26.594,-22.814 39.434,-34.811z" transform="scale(0.666667 0.666667)" fill="#FE9896"/>
  <path id="svg_94" d="m166.103,181.838c6.846,0.606 13.923,0.864 20.744,-0.167c2.495,-0.378 5.105,-0.828 7.531,-1.51c3.223,-0.905 7.713,-2.716 11.01,-2.302c-1.703,1.692 -3.278,3.384 -4.732,5.298c-0.474,0.625 -2.201,3.449 -2.742,3.683c-5.641,9.476 -10.21,19.209 -14.974,29.126c-5.184,10.792 -12.321,22.823 -13.392,34.894c-8.469,-3.344 -20.378,-9.244 -24.229,-18.113l-1.16,-3.297c-0.937,-10.83 -2.058,-22.715 2.572,-32.975c2.068,-1.115 3.744,-3.53 5.281,-5.289c3.144,-3.596 6.32,-7.624 10.025,-10.642l1.027,0.615c0.994,0.658 1.734,0.572 2.868,0.529l0.171,0.15z" transform="scale(0.666667 0.666667)" fill="#FE6D63"/>
  <path id="svg_95" d="m187.975,190.688c0.817,-0.265 0.654,-0.362 1.524,0c0.603,2.392 -3.525,7.764 -4.664,10.088c-1.199,2.444 -2.192,5.018 -3.225,7.536c-0.41,0.884 -0.15,0.471 -0.783,1.236l-0.031,-0.327c-0.012,-3.547 5.071,-16.045 7.179,-18.533z" transform="scale(0.666667 0.666667)" fill="#FEFEFD"/>
  <path id="svg_96" d="m166.103,181.838c6.846,0.606 13.923,0.864 20.744,-0.167c2.495,-0.378 5.105,-0.828 7.531,-1.51c3.223,-0.905 7.713,-2.716 11.01,-2.302c-1.703,1.692 -3.278,3.384 -4.732,5.298c-0.474,0.625 -2.201,3.449 -2.742,3.683l-0.428,-0.185c0.236,-0.569 0.368,-1.095 0.813,-1.54l0.263,-0.24l0.004,-0.563l0.561,-0.468l0.281,-0.469l0.28,-0.375c-0.51,-0.41 -0.611,-0.441 -1.219,-0.564l-0.281,1.123l-1.219,0.002l-0.281,0.748l-0.75,0l-0.376,0.375l-0.75,0l-0.374,0.375c-3.644,-0.03 -6.927,0.669 -10.5,0.885c-6.27,0.378 -11.923,-0.811 -17.608,-3.424l-0.227,-0.682z" transform="scale(0.666667 0.666667)" fill="#FC423E"/>
  <path id="svg_97" d="m210.133,175.843c2.876,-0.329 6.687,-2.196 9.449,-3.216c9.285,-3.429 18.611,-8.544 25.725,-15.53c2.602,-2.556 4.92,-5.724 7.001,-8.717c1.356,-1.95 3.955,-7.414 5.88,-8.096l0.935,1.043l0.468,-0.451c0.703,0.671 1.397,1.559 2.388,1.742c2.799,0.844 14.508,18.545 16.661,22.005l1.116,1.727c0.335,0.502 0.538,0.709 1.035,1.016l8.513,16.693l-0.629,-0.076c-3.6,-0.403 -6.988,-0.49 -10.486,0.609c-4.527,1.635 -8.313,4.524 -12.159,7.342l-21.442,21.477c-9.39,11.471 -16.467,23.673 -20.253,38.092c-0.516,1.963 -1.659,5.353 -1.473,7.346l-0.674,2.221c-0.685,0.334 -1.12,0.225 -1.852,0.206c-2.21,-0.058 -4.497,0.425 -6.721,0.507c-5.813,0.214 -11.807,-0.261 -17.506,-1.423c-5.036,-0.985 -9.99,-2.444 -14.797,-4.236c-2.058,-0.768 -4.344,-1.493 -6.21,-2.668c-1.09,-0.687 -2.652,-1.899 -2.859,-3.262c-0.246,-1.621 0.359,-3.406 0.919,-4.909c2.364,-6.342 5.958,-12.389 8.926,-18.486c4.202,-8.632 8.013,-17.419 12.68,-25.82c4.664,-8.396 9.861,-16.786 15.062,-24.858l0.303,-0.278z" transform="scale(0.666667 0.666667)" fill="url(#gradient_5)"/>
  <path id="svg_98" d="m239.147,176.263l0.474,-0.007l1.01,1.306l-4.287,5.456l-0.667,0.003l-0.393,-0.396c0.264,-1.569 1.225,-3.242 2.293,-4.412c0.572,-0.628 1.065,-1.268 1.57,-1.95z" transform="scale(0.666667 0.666667)" fill="#FE9896"/>
  <path id="svg_99" d="m239.621,176.256c1.861,0.27 2.688,1.206 4.313,1.682l-0.092,0.562c-0.119,0.88 -0.021,0.867 -0.654,1.5l-0.75,0.184l-1.5,-1.125c-1.439,0.581 -1.963,1.74 -2.904,2.927c-0.453,0.572 -0.669,1.149 -1.036,1.762c-0.484,0.809 -0.728,1.407 -1.125,2.25l-0.294,0.458c-0.458,0.915 -0.312,1.927 -0.267,2.919l0.372,0.375c0.001,0.884 -0.256,1.984 0.369,2.625c-0.029,1.404 0.052,2.236 0.379,3.563c0.167,0.678 -0.016,1.315 0.191,2.064l0.189,0.939l0.552,0.186l0.391,0.657c0.363,0.592 0.639,0.866 1.177,1.279c2.093,1.61 3.397,6.103 4.282,8.562c0.432,1.201 0.602,2.809 1.374,3.786c-9.39,11.471 -16.467,23.673 -20.253,38.092c-0.516,1.963 -1.659,5.353 -1.473,7.346l-0.674,2.221c-0.685,0.334 -1.12,0.225 -1.852,0.206c-2.21,-0.058 -4.497,0.425 -6.721,0.507c-5.813,0.214 -11.807,-0.261 -17.506,-1.423c1.02,-3.556 2.63,-6.875 4.151,-10.235c3.797,-8.388 8.154,-16.062 12.699,-24.053c2.794,-4.91 5.211,-10.003 7.927,-14.947c1.781,-3.241 3.872,-6.31 5.627,-9.551c1.603,-2.96 3.055,-6.017 4.559,-9.03c0.443,-0.887 1.102,-2.685 1.769,-3.356c0.273,-0.275 0.983,-0.549 1.343,-0.75c0.418,-1.961 1.283,-3.637 2.16,-5.42l4.287,-5.456l-1.01,-1.306z" transform="scale(0.666667 0.666667)" fill="#F65B67"/>
  <path id="svg_100" d="m259.591,140.876c0.703,0.671 1.397,1.559 2.388,1.742c2.799,0.844 14.508,18.545 16.661,22.005l1.116,1.727c0.335,0.502 0.538,0.709 1.035,1.016l8.513,16.693l-0.629,-0.076c-3.6,-0.403 -6.988,-0.49 -10.486,0.609c-4.527,1.635 -8.313,4.524 -12.159,7.342l-21.442,21.477c-0.772,-0.977 -0.942,-2.585 -1.374,-3.786c-0.885,-2.459 -2.189,-6.952 -4.282,-8.562c-0.538,-0.413 -0.814,-0.687 -1.177,-1.279l-0.391,-0.657l-0.552,-0.186l-0.189,-0.939c-0.207,-0.749 -0.024,-1.386 -0.191,-2.064c-0.327,-1.327 -0.408,-2.159 -0.379,-3.563c-0.625,-0.641 -0.368,-1.741 -0.369,-2.625l-0.372,-0.375c-0.045,-0.992 -0.191,-2.004 0.267,-2.919l0.294,-0.458c0.397,-0.843 0.641,-1.441 1.125,-2.25c0.367,-0.613 0.583,-1.19 1.036,-1.762c0.941,-1.187 1.465,-2.346 2.904,-2.927l1.5,1.125l0.75,-0.184c0.633,-0.633 0.535,-0.62 0.654,-1.5l0.092,-0.562c-1.625,-0.476 -2.452,-1.412 -4.313,-1.682l-0.474,0.007l-0.456,-0.735c0.04,-0.331 0.029,-0.447 0.214,-0.778c1.072,-1.909 3.766,-4.031 5.392,-5.646c1.544,-1.532 3.444,-3.733 5.402,-4.697c1.476,-0.727 3.002,-0.5 4.579,-0.3c3.697,0.467 8.761,2.637 12.347,2.063c1.059,-0.758 2.186,-1.907 2.497,-3.218c0.819,-3.44 -7.883,-17.841 -9.999,-21.625l0.468,-0.451z" transform="scale(0.666667 0.666667)" fill="#FC423E"/>
  <path id="svg_101" d="m266.03,191.934c0.112,-2.141 6.074,-5.918 7.308,-8.486c0.573,-1.193 0.654,-2.715 0.794,-4.018l0.039,-0.456c1.689,0.79 2.337,3.98 3.77,5.383l0.248,0.235c-4.527,1.635 -8.313,4.524 -12.159,7.342z" transform="scale(0.666667 0.666667)" fill="#D93B47"/>
  <path id="svg_102" d="m280.791,167.366c1.261,0.413 1.714,1.705 2.426,2.792c1.957,2.989 3.921,6.067 5.494,9.28c0.803,1.64 1.34,3.221 1.195,5.066c4.585,1.181 6.786,2.396 10.138,5.72c0.659,-0.189 1.019,-0.285 1.713,-0.153l0.493,0.123c0.664,-0.277 0.95,-1.362 1.5,-2.053l0.544,0.33c0.644,3.089 1.341,4.482 4.113,6.196c1.925,1.19 4.156,1.777 6.295,2.457c5.875,1.869 12.331,2.377 18.455,2.816c0.372,0.165 1.262,0.425 1.531,0.678c0.64,0.603 1.355,2.412 1.816,3.233c2.668,4.749 5.009,9.702 7.527,14.531c6.373,12.225 13.055,24.33 19.254,36.639c-4.342,0.745 -8.969,1.444 -13.111,3.014c-6.849,2.717 -13.123,6.544 -19.229,10.63c-1.329,0.889 -5.119,4.557 -6.434,4.846c-2.926,0.358 -8.968,7.666 -11.064,9.934c-2.634,-2.271 -4.019,-5.173 -5.82,-8.084c-2.739,-4.427 -5.469,-8.849 -8.083,-13.351c-1.349,-2.323 -2.557,-5.369 -4.764,-6.949c-12.84,11.997 -26.377,23.087 -39.434,34.811c-5.003,4.493 -9.468,9.58 -14.416,14.066c-0.749,0.679 -1.146,0.858 -2.144,0.943l-0.382,0.106c-4.365,-0.779 -8.18,-2.058 -12.156,-4.006c-1.57,-0.769 -3.056,-1.961 -4.752,-2.391c-1.119,-1.001 -1.91,-2.881 -2.459,-4.286c-3,-7.673 -2.544,-19.087 1.53,-26.305c1.932,-3.422 5.811,-6.705 8.619,-9.489c4.816,-4.776 9.64,-9.544 14.435,-14.342c11.371,-11.378 22.749,-22.794 33.732,-34.546c2.827,-3.026 5.652,-6.023 8.282,-9.225c0.814,-0.991 2.222,-2.367 2.639,-3.579c0.261,-0.758 0.102,-0.943 -0.274,-1.56c-1.494,0.484 -2.608,1.563 -3.738,2.61c-5.295,4.908 -10.106,10.388 -15.254,15.463c-6.516,6.424 -12.867,13.022 -19.413,19.411c-5.926,5.784 -12.037,11.375 -17.937,17.19c-1.683,1.659 -3.315,3.363 -4.845,5.165c-0.932,1.098 -2.062,2.874 -3.377,3.501l-0.574,0.251c-0.186,-1.993 0.957,-5.383 1.473,-7.346c3.786,-14.419 10.863,-26.621 20.253,-38.092l21.442,-21.477c3.846,-2.818 7.632,-5.707 12.159,-7.342c3.498,-1.099 6.886,-1.012 10.486,-0.609l0.629,0.076l-8.513,-16.693z" transform="scale(0.666667 0.666667)" fill="#FEAEAE"/>
  <path id="svg_103" d="m293.777,251.117c0.456,1.331 0.864,2.54 1.003,3.944c-12.84,11.997 -26.377,23.087 -39.434,34.811c-5.003,4.493 -9.468,9.58 -14.416,14.066c-0.749,0.679 -1.146,0.858 -2.144,0.943c-0.151,-0.653 -0.139,-0.39 -0.061,-1.184c0.866,-8.85 46.704,-45.965 55.052,-52.58z" transform="scale(0.666667 0.666667)" fill="#FEFEFD"/>
  <path id="svg_104" d="m289.906,184.504c4.585,1.181 6.786,2.396 10.138,5.72c0.659,-0.189 1.019,-0.285 1.713,-0.153l0.493,0.123c0.664,-0.277 0.95,-1.362 1.5,-2.053l0.544,0.33c0.644,3.089 1.341,4.482 4.113,6.196c1.925,1.19 4.156,1.777 6.295,2.457c5.875,1.869 12.331,2.377 18.455,2.816c0.372,0.165 1.262,0.425 1.531,0.678c0.64,0.603 1.355,2.412 1.816,3.233c2.668,4.749 5.009,9.702 7.527,14.531c6.373,12.225 13.055,24.33 19.254,36.639c-4.342,0.745 -8.969,1.444 -13.111,3.014c-6.849,2.717 -13.123,6.544 -19.229,10.63c-1.329,0.889 -5.119,4.557 -6.434,4.846c-2.926,0.358 -8.968,7.666 -11.064,9.934c-2.634,-2.271 -4.019,-5.173 -5.82,-8.084c-2.739,-4.427 -5.469,-8.849 -8.083,-13.351c-1.349,-2.323 -2.557,-5.369 -4.764,-6.949c-0.139,-1.404 -0.547,-2.613 -1.003,-3.944c-0.91,-3.643 -1.082,-7.746 -1.546,-11.479c-1.111,-8.934 -2.105,-17.965 -2.709,-26.947c-0.311,-4.615 -0.232,-9.358 -0.664,-13.941c-0.127,-1.342 -0.085,-2.369 0.08,-3.711c0.841,-0.579 1.504,-1.256 2.624,-1.011c0.598,0.131 0.886,0.97 1.631,0.97c0.12,-2.599 -1.902,-5.723 -2.929,-8.09c-0.326,-0.753 -0.659,-1.62 -0.358,-2.404z" transform="scale(0.666667 0.666667)" fill="#FE8487"/>
  <path id="svg_105" d="m300.044,190.224c0.659,-0.189 1.019,-0.285 1.713,-0.153l0.493,0.123c0.664,-0.277 0.95,-1.362 1.5,-2.053l0.544,0.33c0.644,3.089 1.341,4.482 4.113,6.196c1.925,1.19 4.156,1.777 6.295,2.457c5.875,1.869 12.331,2.377 18.455,2.816c0.372,0.165 1.262,0.425 1.531,0.678c0.64,0.603 1.355,2.412 1.816,3.233c2.668,4.749 5.009,9.702 7.527,14.531c6.373,12.225 13.055,24.33 19.254,36.639c-4.342,0.745 -8.969,1.444 -13.111,3.014c-1.404,-4.676 -4.805,-9.336 -7.352,-13.488c-7.783,-12.685 -16.178,-25.363 -25.931,-36.626c-5.299,-6.12 -11.249,-11.835 -16.847,-17.697z" transform="scale(0.666667 0.666667)" fill="#D93B47"/>
 </g>
</svg>